ISO-10303-21;
HEADER;
FILE_DESCRIPTION(('CATIA V5 STEP Exchange','CAx-IF Rec.Pracs.--- Model Styling and Organization---1.5--- 2016-08-15','CAx-IF Rec.Pracs.---Supplemental Geometry---1.0---2011-11-01','CAx-IF Rec.Pracs.--- Composite Materials ---1.1---2010-07-15'),'2;1');

FILE_NAME('C:\\git\\TopOpt.jl\\projects\\hive\\cantilever.stp','2025-04-30T08:10:16+00:00',('none'),('none'),'CATIA Version 5-6 Release 2024 SP1','CATIA V5 STEP AP214 v3','none');

FILE_SCHEMA(('AUTOMOTIVE_DESIGN { 1 0 10303 214 1 1 1 1 }'));

ENDSEC;
DATA;
#5=PRODUCT('Part1','','',(#2)) ;
#2=PRODUCT_CONTEXT(' ',#1,'mechanical') ;
#1=APPLICATION_CONTEXT('automotive design') ;
#10=PRODUCT_DEFINITION('',' ',#6,#3) ;
#3=PRODUCT_DEFINITION_CONTEXT('part definition',#1,' ') ;
#11=PRODUCT_DEFINITION_SHAPE(' ',' ',#10) ;
#464=MECHANICAL_DESIGN_GEOMETRIC_PRESENTATION_REPRESENTATION(' ',(#29,#314),#16) ;
#19=SHAPE_REPRESENTATION(' ',(#18),#16) ;
#18=AXIS2_PLACEMENT_3D(' ',#17,$,$) ;
#34=AXIS2_PLACEMENT_3D('Plane Axis2P3D',#31,#32,#33) ;
#74=AXIS2_PLACEMENT_3D('Plane Axis2P3D',#71,#72,#73) ;
#105=AXIS2_PLACEMENT_3D('Plane Axis2P3D',#102,#103,#104) ;
#129=AXIS2_PLACEMENT_3D('Plane Axis2P3D',#126,#127,#128) ;
#153=AXIS2_PLACEMENT_3D('Plane Axis2P3D',#150,#151,#152) ;
#193=AXIS2_PLACEMENT_3D('Plane Axis2P3D',#190,#191,#192) ;
#233=AXIS2_PLACEMENT_3D('Plane Axis2P3D',#230,#231,#232) ;
#261=AXIS2_PLACEMENT_3D('Plane Axis2P3D',#258,#259,#260) ;
#285=AXIS2_PLACEMENT_3D('Plane Axis2P3D',#282,#283,#284) ;
#302=AXIS2_PLACEMENT_3D('Plane Axis2P3D',#299,#300,#301) ;
#319=AXIS2_PLACEMENT_3D('Plane Axis2P3D',#316,#317,#318) ;
#359=AXIS2_PLACEMENT_3D('Plane Axis2P3D',#356,#357,#358) ;
#390=AXIS2_PLACEMENT_3D('Plane Axis2P3D',#387,#388,#389) ;
#421=AXIS2_PLACEMENT_3D('Plane Axis2P3D',#418,#419,#420) ;
#443=AXIS2_PLACEMENT_3D('Plane Axis2P3D',#440,#441,#442) ;
#455=AXIS2_PLACEMENT_3D('Plane Axis2P3D',#452,#453,#454) ;
#17=CARTESIAN_POINT(' ',(0.,0.,0.)) ;
#31=CARTESIAN_POINT('Axis2P3D Location',(87.4439315796,0.,0.)) ;
#36=CARTESIAN_POINT('Line Origine',(87.4439315796,0.,15.)) ;
#40=CARTESIAN_POINT('Vertex',(87.4439315796,0.,0.)) ;
#42=CARTESIAN_POINT('Vertex',(87.4439315796,0.,30.)) ;
#45=CARTESIAN_POINT('Line Origine',(87.4439315796,20.70216322,0.)) ;
#49=CARTESIAN_POINT('Vertex',(87.4439315796,41.4043264389,0.)) ;
#52=CARTESIAN_POINT('Line Origine',(87.4439315796,41.4043264389,15.)) ;
#56=CARTESIAN_POINT('Vertex',(87.4439315796,41.4043264389,30.)) ;
#59=CARTESIAN_POINT('Line Origine',(87.4439315796,20.7021632195,30.)) ;
#71=CARTESIAN_POINT('Axis2P3D Location',(114.570884705,41.4043264389,0.)) ;
#76=CARTESIAN_POINT('Line Origine',(101.007408135,41.4043264389,0.)) ;
#80=CARTESIAN_POINT('Vertex',(114.570884705,41.4043264389,0.)) ;
#83=CARTESIAN_POINT('Line Origine',(114.570884705,41.4043264389,15.)) ;
#87=CARTESIAN_POINT('Vertex',(114.570884705,41.4043264389,30.)) ;
#90=CARTESIAN_POINT('Line Origine',(101.007408142,41.4043264389,30.)) ;
#102=CARTESIAN_POINT('Axis2P3D Location',(101.007408142,20.7021632195,30.)) ;
#107=CARTESIAN_POINT('Line Origine',(114.570884705,20.7021632195,30.)) ;
#111=CARTESIAN_POINT('Vertex',(114.570884705,0.,30.)) ;
#114=CARTESIAN_POINT('Line Origine',(101.007408142,0.,30.)) ;
#126=CARTESIAN_POINT('Axis2P3D Location',(114.570884705,41.4043264389,0.)) ;
#131=CARTESIAN_POINT('Line Origine',(114.570884705,20.7021632189,0.)) ;
#135=CARTESIAN_POINT('Vertex',(114.570884705,0.,0.)) ;
#138=CARTESIAN_POINT('Line Origine',(114.570884705,0.,15.)) ;
#150=CARTESIAN_POINT('Axis2P3D Location',(200.,0.,0.)) ;
#155=CARTESIAN_POINT('Line Origine',(200.,0.,25.)) ;
#159=CARTESIAN_POINT('Vertex',(200.,0.,0.)) ;
#161=CARTESIAN_POINT('Vertex',(200.,0.,50.)) ;
#164=CARTESIAN_POINT('Line Origine',(200.,25.,0.)) ;
#168=CARTESIAN_POINT('Vertex',(200.,50.,0.)) ;
#171=CARTESIAN_POINT('Line Origine',(200.,50.,25.)) ;
#175=CARTESIAN_POINT('Vertex',(200.,50.,50.)) ;
#178=CARTESIAN_POINT('Line Origine',(200.,25.,50.)) ;
#190=CARTESIAN_POINT('Axis2P3D Location',(0.,0.,0.)) ;
#195=CARTESIAN_POINT('Line Origine',(157.285442352,0.,0.)) ;
#200=CARTESIAN_POINT('Line Origine',(100.,0.,50.)) ;
#204=CARTESIAN_POINT('Vertex',(0.,0.,50.)) ;
#207=CARTESIAN_POINT('Line Origine',(0.,0.,25.)) ;
#211=CARTESIAN_POINT('Vertex',(0.,0.,0.)) ;
#214=CARTESIAN_POINT('Line Origine',(43.7219657898,0.,0.)) ;
#230=CARTESIAN_POINT('Axis2P3D Location',(0.,0.,0.)) ;
#235=CARTESIAN_POINT('Line Origine',(0.,25.,0.)) ;
#239=CARTESIAN_POINT('Vertex',(0.,50.,0.)) ;
#242=CARTESIAN_POINT('Line Origine',(100.,50.,0.)) ;
#258=CARTESIAN_POINT('Axis2P3D Location',(200.,50.,0.)) ;
#263=CARTESIAN_POINT('Line Origine',(0.,50.,25.)) ;
#267=CARTESIAN_POINT('Vertex',(0.,50.,50.)) ;
#270=CARTESIAN_POINT('Line Origine',(100.,50.,50.)) ;
#282=CARTESIAN_POINT('Axis2P3D Location',(0.,0.,50.)) ;
#287=CARTESIAN_POINT('Line Origine',(0.,25.,50.)) ;
#299=CARTESIAN_POINT('Axis2P3D Location',(0.,50.,0.)) ;
#316=CARTESIAN_POINT('Axis2P3D Location',(87.4439315796,0.,0.)) ;
#321=CARTESIAN_POINT('Line Origine',(87.4439315796,20.7021632195,30.)) ;
#325=CARTESIAN_POINT('Vertex',(87.4439315796,0.,30.)) ;
#327=CARTESIAN_POINT('Vertex',(87.4439315796,41.4043264389,30.)) ;
#330=CARTESIAN_POINT('Line Origine',(87.4439315796,41.4043264389,15.)) ;
#334=CARTESIAN_POINT('Vertex',(87.4439315796,41.4043264389,0.)) ;
#337=CARTESIAN_POINT('Line Origine',(87.4439315796,20.7021632195,0.)) ;
#341=CARTESIAN_POINT('Vertex',(87.4439315796,0.,0.)) ;
#344=CARTESIAN_POINT('Line Origine',(87.4439315796,0.,15.)) ;
#356=CARTESIAN_POINT('Axis2P3D Location',(114.570884705,41.4043264389,0.)) ;
#361=CARTESIAN_POINT('Line Origine',(101.007408142,41.4043264389,30.)) ;
#365=CARTESIAN_POINT('Vertex',(114.570884705,41.4043264389,30.)) ;
#368=CARTESIAN_POINT('Line Origine',(114.570884705,41.4043264389,15.)) ;
#372=CARTESIAN_POINT('Vertex',(114.570884705,41.4043264389,0.)) ;
#375=CARTESIAN_POINT('Line Origine',(101.007408142,41.4043264389,0.)) ;
#387=CARTESIAN_POINT('Axis2P3D Location',(114.570884705,41.4043264389,0.)) ;
#392=CARTESIAN_POINT('Line Origine',(114.570884705,20.7021632195,30.)) ;
#396=CARTESIAN_POINT('Vertex',(114.570884705,0.,30.)) ;
#399=CARTESIAN_POINT('Line Origine',(114.570884705,0.,15.)) ;
#403=CARTESIAN_POINT('Vertex',(114.570884705,0.,0.)) ;
#406=CARTESIAN_POINT('Line Origine',(114.570884705,20.7021632195,0.)) ;
#418=CARTESIAN_POINT('Axis2P3D Location',(87.4439315796,0.,0.)) ;
#423=CARTESIAN_POINT('Line Origine',(101.007408142,0.,30.)) ;
#428=CARTESIAN_POINT('Line Origine',(101.007408142,0.,0.)) ;
#440=CARTESIAN_POINT('Axis2P3D Location',(0.,0.,0.)) ;
#452=CARTESIAN_POINT('Axis2P3D Location',(0.,0.,30.)) ;
#32=DIRECTION('Axis2P3D Direction',(1.,-0.,0.)) ;
#33=DIRECTION('Axis2P3D XDirection',(0.,1.,-0.)) ;
#37=DIRECTION('Vector Direction',(0.,0.,1.)) ;
#46=DIRECTION('Vector Direction',(0.,1.,0.)) ;
#53=DIRECTION('Vector Direction',(0.,0.,1.)) ;
#60=DIRECTION('Vector Direction',(0.,1.,0.)) ;
#72=DIRECTION('Axis2P3D Direction',(-0.,1.,0.)) ;
#73=DIRECTION('Axis2P3D XDirection',(-1.,-0.,0.)) ;
#77=DIRECTION('Vector Direction',(-1.,0.,0.)) ;
#84=DIRECTION('Vector Direction',(0.,0.,1.)) ;
#91=DIRECTION('Vector Direction',(-1.,0.,0.)) ;
#103=DIRECTION('Axis2P3D Direction',(0.,0.,-1.)) ;
#104=DIRECTION('Axis2P3D XDirection',(0.,1.,0.)) ;
#108=DIRECTION('Vector Direction',(0.,-1.,0.)) ;
#115=DIRECTION('Vector Direction',(1.,0.,0.)) ;
#127=DIRECTION('Axis2P3D Direction',(-1.,0.,0.)) ;
#128=DIRECTION('Axis2P3D XDirection',(0.,-1.,0.)) ;
#132=DIRECTION('Vector Direction',(0.,-1.,0.)) ;
#139=DIRECTION('Vector Direction',(0.,0.,1.)) ;
#151=DIRECTION('Axis2P3D Direction',(1.,0.,0.)) ;
#152=DIRECTION('Axis2P3D XDirection',(0.,1.,0.)) ;
#156=DIRECTION('Vector Direction',(0.,0.,1.)) ;
#165=DIRECTION('Vector Direction',(0.,1.,0.)) ;
#172=DIRECTION('Vector Direction',(0.,0.,1.)) ;
#179=DIRECTION('Vector Direction',(0.,1.,0.)) ;
#191=DIRECTION('Axis2P3D Direction',(0.,-1.,0.)) ;
#192=DIRECTION('Axis2P3D XDirection',(1.,0.,0.)) ;
#196=DIRECTION('Vector Direction',(1.,0.,0.)) ;
#201=DIRECTION('Vector Direction',(1.,0.,0.)) ;
#208=DIRECTION('Vector Direction',(0.,0.,1.)) ;
#215=DIRECTION('Vector Direction',(1.,0.,0.)) ;
#231=DIRECTION('Axis2P3D Direction',(0.,0.,1.)) ;
#232=DIRECTION('Axis2P3D XDirection',(1.,0.,0.)) ;
#236=DIRECTION('Vector Direction',(0.,-1.,0.)) ;
#243=DIRECTION('Vector Direction',(-1.,0.,0.)) ;
#259=DIRECTION('Axis2P3D Direction',(0.,1.,-0.)) ;
#260=DIRECTION('Axis2P3D XDirection',(-1.,0.,0.)) ;
#264=DIRECTION('Vector Direction',(0.,0.,1.)) ;
#271=DIRECTION('Vector Direction',(-1.,0.,0.)) ;
#283=DIRECTION('Axis2P3D Direction',(0.,0.,1.)) ;
#284=DIRECTION('Axis2P3D XDirection',(1.,0.,0.)) ;
#288=DIRECTION('Vector Direction',(0.,-1.,0.)) ;
#300=DIRECTION('Axis2P3D Direction',(-1.,0.,0.)) ;
#301=DIRECTION('Axis2P3D XDirection',(0.,-1.,0.)) ;
#317=DIRECTION('Axis2P3D Direction',(1.,-0.,0.)) ;
#318=DIRECTION('Axis2P3D XDirection',(0.,1.,-0.)) ;
#322=DIRECTION('Vector Direction',(0.,1.,0.)) ;
#331=DIRECTION('Vector Direction',(0.,0.,1.)) ;
#338=DIRECTION('Vector Direction',(0.,1.,0.)) ;
#345=DIRECTION('Vector Direction',(0.,0.,1.)) ;
#357=DIRECTION('Axis2P3D Direction',(-0.,1.,0.)) ;
#358=DIRECTION('Axis2P3D XDirection',(-1.,-0.,0.)) ;
#362=DIRECTION('Vector Direction',(-1.,0.,0.)) ;
#369=DIRECTION('Vector Direction',(0.,0.,1.)) ;
#376=DIRECTION('Vector Direction',(-1.,0.,0.)) ;
#388=DIRECTION('Axis2P3D Direction',(-1.,0.,0.)) ;
#389=DIRECTION('Axis2P3D XDirection',(0.,-1.,0.)) ;
#393=DIRECTION('Vector Direction',(0.,-1.,0.)) ;
#400=DIRECTION('Vector Direction',(0.,0.,1.)) ;
#407=DIRECTION('Vector Direction',(0.,-1.,0.)) ;
#419=DIRECTION('Axis2P3D Direction',(0.,-1.,0.)) ;
#420=DIRECTION('Axis2P3D XDirection',(1.,0.,0.)) ;
#424=DIRECTION('Vector Direction',(1.,0.,0.)) ;
#429=DIRECTION('Vector Direction',(1.,0.,0.)) ;
#441=DIRECTION('Axis2P3D Direction',(0.,-0.,-1.)) ;
#442=DIRECTION('Axis2P3D XDirection',(1.,0.,-0.)) ;
#453=DIRECTION('Axis2P3D Direction',(0.,-0.,-1.)) ;
#454=DIRECTION('Axis2P3D XDirection',(1.,0.,-0.)) ;
#8=PRODUCT_RELATED_PRODUCT_CATEGORY('part',$,(#5)) ;
#7=PRODUCT_CATEGORY('part','specification') ;
#29=STYLED_ITEM(' ',(#28),#21) ;
#314=STYLED_ITEM(' ',(#28),#313) ;
#28=PRESENTATION_STYLE_ASSIGNMENT((#27)) ;
#27=SURFACE_STYLE_USAGE(.BOTH.,#26) ;
#26=SURFACE_SIDE_STYLE(' ',(#25)) ;
#25=SURFACE_STYLE_FILL_AREA(#24) ;
#24=FILL_AREA_STYLE(' ',(#23)) ;
#23=FILL_AREA_STYLE_COLOUR(' ',#22) ;
#38=VECTOR('Line Direction',#37,1.) ;
#47=VECTOR('Line Direction',#46,1.) ;
#54=VECTOR('Line Direction',#53,1.) ;
#61=VECTOR('Line Direction',#60,1.) ;
#78=VECTOR('Line Direction',#77,1.) ;
#85=VECTOR('Line Direction',#84,1.) ;
#92=VECTOR('Line Direction',#91,1.) ;
#109=VECTOR('Line Direction',#108,1.) ;
#116=VECTOR('Line Direction',#115,1.) ;
#133=VECTOR('Line Direction',#132,1.) ;
#140=VECTOR('Line Direction',#139,1.) ;
#157=VECTOR('Line Direction',#156,1.) ;
#166=VECTOR('Line Direction',#165,1.) ;
#173=VECTOR('Line Direction',#172,1.) ;
#180=VECTOR('Line Direction',#179,1.) ;
#197=VECTOR('Line Direction',#196,1.) ;
#202=VECTOR('Line Direction',#201,1.) ;
#209=VECTOR('Line Direction',#208,1.) ;
#216=VECTOR('Line Direction',#215,1.) ;
#237=VECTOR('Line Direction',#236,1.) ;
#244=VECTOR('Line Direction',#243,1.) ;
#265=VECTOR('Line Direction',#264,1.) ;
#272=VECTOR('Line Direction',#271,1.) ;
#289=VECTOR('Line Direction',#288,1.) ;
#323=VECTOR('Line Direction',#322,1.) ;
#332=VECTOR('Line Direction',#331,1.) ;
#339=VECTOR('Line Direction',#338,1.) ;
#346=VECTOR('Line Direction',#345,1.) ;
#363=VECTOR('Line Direction',#362,1.) ;
#370=VECTOR('Line Direction',#369,1.) ;
#377=VECTOR('Line Direction',#376,1.) ;
#394=VECTOR('Line Direction',#393,1.) ;
#401=VECTOR('Line Direction',#400,1.) ;
#408=VECTOR('Line Direction',#407,1.) ;
#425=VECTOR('Line Direction',#424,1.) ;
#430=VECTOR('Line Direction',#429,1.) ;
#15=UNCERTAINTY_MEASURE_WITH_UNIT(LENGTH_MEASURE(0.005),#12,'distance_accuracy_value','CONFUSED CURVE UNCERTAINTY') ;
#312=SHAPE_REPRESENTATION_RELATIONSHIP(' ',' ',#19,#311) ;
#65=ORIENTED_EDGE('',*,*,#44,.F.) ;
#66=ORIENTED_EDGE('',*,*,#51,.T.) ;
#67=ORIENTED_EDGE('',*,*,#58,.T.) ;
#68=ORIENTED_EDGE('',*,*,#63,.F.) ;
#96=ORIENTED_EDGE('',*,*,#58,.F.) ;
#97=ORIENTED_EDGE('',*,*,#82,.T.) ;
#98=ORIENTED_EDGE('',*,*,#89,.T.) ;
#99=ORIENTED_EDGE('',*,*,#94,.T.) ;
#120=ORIENTED_EDGE('',*,*,#94,.F.) ;
#121=ORIENTED_EDGE('',*,*,#113,.T.) ;
#122=ORIENTED_EDGE('',*,*,#118,.F.) ;
#123=ORIENTED_EDGE('',*,*,#63,.T.) ;
#144=ORIENTED_EDGE('',*,*,#89,.F.) ;
#145=ORIENTED_EDGE('',*,*,#137,.T.) ;
#146=ORIENTED_EDGE('',*,*,#142,.T.) ;
#147=ORIENTED_EDGE('',*,*,#113,.F.) ;
#184=ORIENTED_EDGE('',*,*,#163,.F.) ;
#185=ORIENTED_EDGE('',*,*,#170,.T.) ;
#186=ORIENTED_EDGE('',*,*,#177,.T.) ;
#187=ORIENTED_EDGE('',*,*,#182,.F.) ;
#220=ORIENTED_EDGE('',*,*,#199,.T.) ;
#221=ORIENTED_EDGE('',*,*,#163,.T.) ;
#222=ORIENTED_EDGE('',*,*,#206,.F.) ;
#223=ORIENTED_EDGE('',*,*,#213,.F.) ;
#224=ORIENTED_EDGE('',*,*,#218,.T.) ;
#225=ORIENTED_EDGE('',*,*,#44,.T.) ;
#226=ORIENTED_EDGE('',*,*,#118,.T.) ;
#227=ORIENTED_EDGE('',*,*,#142,.F.) ;
#248=ORIENTED_EDGE('',*,*,#137,.F.) ;
#249=ORIENTED_EDGE('',*,*,#82,.F.) ;
#250=ORIENTED_EDGE('',*,*,#51,.F.) ;
#251=ORIENTED_EDGE('',*,*,#218,.F.) ;
#252=ORIENTED_EDGE('',*,*,#241,.F.) ;
#253=ORIENTED_EDGE('',*,*,#246,.F.) ;
#254=ORIENTED_EDGE('',*,*,#170,.F.) ;
#255=ORIENTED_EDGE('',*,*,#199,.F.) ;
#276=ORIENTED_EDGE('',*,*,#177,.F.) ;
#277=ORIENTED_EDGE('',*,*,#246,.T.) ;
#278=ORIENTED_EDGE('',*,*,#269,.T.) ;
#279=ORIENTED_EDGE('',*,*,#274,.F.) ;
#293=ORIENTED_EDGE('',*,*,#206,.T.) ;
#294=ORIENTED_EDGE('',*,*,#182,.T.) ;
#295=ORIENTED_EDGE('',*,*,#274,.T.) ;
#296=ORIENTED_EDGE('',*,*,#291,.T.) ;
#305=ORIENTED_EDGE('',*,*,#269,.F.) ;
#306=ORIENTED_EDGE('',*,*,#241,.T.) ;
#307=ORIENTED_EDGE('',*,*,#213,.T.) ;
#308=ORIENTED_EDGE('',*,*,#291,.F.) ;
#350=ORIENTED_EDGE('',*,*,#329,.T.) ;
#351=ORIENTED_EDGE('',*,*,#336,.F.) ;
#352=ORIENTED_EDGE('',*,*,#343,.F.) ;
#353=ORIENTED_EDGE('',*,*,#348,.T.) ;
#381=ORIENTED_EDGE('',*,*,#367,.T.) ;
#382=ORIENTED_EDGE('',*,*,#374,.F.) ;
#383=ORIENTED_EDGE('',*,*,#379,.F.) ;
#384=ORIENTED_EDGE('',*,*,#336,.T.) ;
#412=ORIENTED_EDGE('',*,*,#398,.T.) ;
#413=ORIENTED_EDGE('',*,*,#405,.F.) ;
#414=ORIENTED_EDGE('',*,*,#410,.F.) ;
#415=ORIENTED_EDGE('',*,*,#374,.T.) ;
#434=ORIENTED_EDGE('',*,*,#427,.T.) ;
#435=ORIENTED_EDGE('',*,*,#348,.F.) ;
#436=ORIENTED_EDGE('',*,*,#432,.F.) ;
#437=ORIENTED_EDGE('',*,*,#405,.T.) ;
#446=ORIENTED_EDGE('',*,*,#343,.T.) ;
#447=ORIENTED_EDGE('',*,*,#379,.T.) ;
#448=ORIENTED_EDGE('',*,*,#410,.T.) ;
#449=ORIENTED_EDGE('',*,*,#432,.T.) ;
#458=ORIENTED_EDGE('',*,*,#427,.F.) ;
#459=ORIENTED_EDGE('',*,*,#398,.F.) ;
#460=ORIENTED_EDGE('',*,*,#367,.F.) ;
#461=ORIENTED_EDGE('',*,*,#329,.F.) ;
#30=CLOSED_SHELL('Closed Shell',(#70,#101,#125,#149,#189,#229,#257,#281,#298,#310)) ;
#315=CLOSED_SHELL('Closed Shell',(#355,#386,#417,#439,#451,#463)) ;
#311=ADVANCED_BREP_SHAPE_REPRESENTATION('NONE',(#21,#313),#16) ;
#70=ADVANCED_FACE('Hauptk\X2\00F6\X0\rper',(#69),#35,.T.) ;
#101=ADVANCED_FACE('Hauptk\X2\00F6\X0\rper',(#100),#75,.F.) ;
#125=ADVANCED_FACE('Hauptk\X2\00F6\X0\rper',(#124),#106,.T.) ;
#149=ADVANCED_FACE('Hauptk\X2\00F6\X0\rper',(#148),#130,.T.) ;
#189=ADVANCED_FACE('Hauptk\X2\00F6\X0\rper',(#188),#154,.T.) ;
#229=ADVANCED_FACE('Hauptk\X2\00F6\X0\rper',(#228),#194,.T.) ;
#257=ADVANCED_FACE('Hauptk\X2\00F6\X0\rper',(#256),#234,.F.) ;
#281=ADVANCED_FACE('Hauptk\X2\00F6\X0\rper',(#280),#262,.T.) ;
#298=ADVANCED_FACE('Hauptk\X2\00F6\X0\rper',(#297),#286,.T.) ;
#310=ADVANCED_FACE('Hauptk\X2\00F6\X0\rper',(#309),#303,.T.) ;
#355=ADVANCED_FACE('K\X2\00F6\X0\rper.2',(#354),#320,.F.) ;
#386=ADVANCED_FACE('K\X2\00F6\X0\rper.2',(#385),#360,.T.) ;
#417=ADVANCED_FACE('K\X2\00F6\X0\rper.2',(#416),#391,.F.) ;
#439=ADVANCED_FACE('K\X2\00F6\X0\rper.2',(#438),#422,.T.) ;
#451=ADVANCED_FACE('K\X2\00F6\X0\rper.2',(#450),#444,.T.) ;
#463=ADVANCED_FACE('K\X2\00F6\X0\rper.2',(#462),#456,.F.) ;
#4=APPLICATION_PROTOCOL_DEFINITION('international standard','automotive_design',2001,#1) ;
#21=MANIFOLD_SOLID_BREP('Hauptk\X2\00F6\X0\rper',#30) ;
#313=MANIFOLD_SOLID_BREP('K\X2\00F6\X0\rper.2',#315) ;
#22=COLOUR_RGB('Colour',0.823529411765,0.823529411765,1.) ;
#44=EDGE_CURVE('',#41,#43,#39,.T.) ;
#51=EDGE_CURVE('',#41,#50,#48,.T.) ;
#58=EDGE_CURVE('',#50,#57,#55,.T.) ;
#63=EDGE_CURVE('',#43,#57,#62,.T.) ;
#82=EDGE_CURVE('',#50,#81,#79,.F.) ;
#89=EDGE_CURVE('',#81,#88,#86,.T.) ;
#94=EDGE_CURVE('',#88,#57,#93,.T.) ;
#113=EDGE_CURVE('',#88,#112,#110,.T.) ;
#118=EDGE_CURVE('',#43,#112,#117,.T.) ;
#137=EDGE_CURVE('',#81,#136,#134,.T.) ;
#142=EDGE_CURVE('',#136,#112,#141,.T.) ;
#163=EDGE_CURVE('',#160,#162,#158,.T.) ;
#170=EDGE_CURVE('',#160,#169,#167,.T.) ;
#177=EDGE_CURVE('',#169,#176,#174,.T.) ;
#182=EDGE_CURVE('',#162,#176,#181,.T.) ;
#199=EDGE_CURVE('',#136,#160,#198,.T.) ;
#206=EDGE_CURVE('',#205,#162,#203,.T.) ;
#213=EDGE_CURVE('',#212,#205,#210,.T.) ;
#218=EDGE_CURVE('',#212,#41,#217,.T.) ;
#241=EDGE_CURVE('',#240,#212,#238,.T.) ;
#246=EDGE_CURVE('',#169,#240,#245,.T.) ;
#269=EDGE_CURVE('',#240,#268,#266,.T.) ;
#274=EDGE_CURVE('',#176,#268,#273,.T.) ;
#291=EDGE_CURVE('',#268,#205,#290,.T.) ;
#329=EDGE_CURVE('',#326,#328,#324,.T.) ;
#336=EDGE_CURVE('',#335,#328,#333,.T.) ;
#343=EDGE_CURVE('',#342,#335,#340,.T.) ;
#348=EDGE_CURVE('',#342,#326,#347,.T.) ;
#367=EDGE_CURVE('',#328,#366,#364,.F.) ;
#374=EDGE_CURVE('',#373,#366,#371,.T.) ;
#379=EDGE_CURVE('',#335,#373,#378,.F.) ;
#398=EDGE_CURVE('',#366,#397,#395,.T.) ;
#405=EDGE_CURVE('',#404,#397,#402,.T.) ;
#410=EDGE_CURVE('',#373,#404,#409,.T.) ;
#427=EDGE_CURVE('',#397,#326,#426,.F.) ;
#432=EDGE_CURVE('',#404,#342,#431,.F.) ;
#64=EDGE_LOOP('',(#65,#66,#67,#68)) ;
#95=EDGE_LOOP('',(#96,#97,#98,#99)) ;
#119=EDGE_LOOP('',(#120,#121,#122,#123)) ;
#143=EDGE_LOOP('',(#144,#145,#146,#147)) ;
#183=EDGE_LOOP('',(#184,#185,#186,#187)) ;
#219=EDGE_LOOP('',(#220,#221,#222,#223,#224,#225,#226,#227)) ;
#247=EDGE_LOOP('',(#248,#249,#250,#251,#252,#253,#254,#255)) ;
#275=EDGE_LOOP('',(#276,#277,#278,#279)) ;
#292=EDGE_LOOP('',(#293,#294,#295,#296)) ;
#304=EDGE_LOOP('',(#305,#306,#307,#308)) ;
#349=EDGE_LOOP('',(#350,#351,#352,#353)) ;
#380=EDGE_LOOP('',(#381,#382,#383,#384)) ;
#411=EDGE_LOOP('',(#412,#413,#414,#415)) ;
#433=EDGE_LOOP('',(#434,#435,#436,#437)) ;
#445=EDGE_LOOP('',(#446,#447,#448,#449)) ;
#457=EDGE_LOOP('',(#458,#459,#460,#461)) ;
#69=FACE_OUTER_BOUND('',#64,.T.) ;
#100=FACE_OUTER_BOUND('',#95,.T.) ;
#124=FACE_OUTER_BOUND('',#119,.T.) ;
#148=FACE_OUTER_BOUND('',#143,.T.) ;
#188=FACE_OUTER_BOUND('',#183,.T.) ;
#228=FACE_OUTER_BOUND('',#219,.T.) ;
#256=FACE_OUTER_BOUND('',#247,.T.) ;
#280=FACE_OUTER_BOUND('',#275,.T.) ;
#297=FACE_OUTER_BOUND('',#292,.T.) ;
#309=FACE_OUTER_BOUND('',#304,.T.) ;
#354=FACE_OUTER_BOUND('',#349,.T.) ;
#385=FACE_OUTER_BOUND('',#380,.T.) ;
#416=FACE_OUTER_BOUND('',#411,.T.) ;
#438=FACE_OUTER_BOUND('',#433,.T.) ;
#450=FACE_OUTER_BOUND('',#445,.T.) ;
#462=FACE_OUTER_BOUND('',#457,.T.) ;
#39=LINE('Line',#36,#38) ;
#48=LINE('Line',#45,#47) ;
#55=LINE('Line',#52,#54) ;
#62=LINE('Line',#59,#61) ;
#79=LINE('Line',#76,#78) ;
#86=LINE('Line',#83,#85) ;
#93=LINE('Line',#90,#92) ;
#110=LINE('Line',#107,#109) ;
#117=LINE('Line',#114,#116) ;
#134=LINE('Line',#131,#133) ;
#141=LINE('Line',#138,#140) ;
#158=LINE('Line',#155,#157) ;
#167=LINE('Line',#164,#166) ;
#174=LINE('Line',#171,#173) ;
#181=LINE('Line',#178,#180) ;
#198=LINE('Line',#195,#197) ;
#203=LINE('Line',#200,#202) ;
#210=LINE('Line',#207,#209) ;
#217=LINE('Line',#214,#216) ;
#238=LINE('Line',#235,#237) ;
#245=LINE('Line',#242,#244) ;
#266=LINE('Line',#263,#265) ;
#273=LINE('Line',#270,#272) ;
#290=LINE('Line',#287,#289) ;
#324=LINE('Line',#321,#323) ;
#333=LINE('Line',#330,#332) ;
#340=LINE('Line',#337,#339) ;
#347=LINE('Line',#344,#346) ;
#364=LINE('Line',#361,#363) ;
#371=LINE('Line',#368,#370) ;
#378=LINE('Line',#375,#377) ;
#395=LINE('Line',#392,#394) ;
#402=LINE('Line',#399,#401) ;
#409=LINE('Line',#406,#408) ;
#426=LINE('Line',#423,#425) ;
#431=LINE('Line',#428,#430) ;
#35=PLANE('',#34) ;
#75=PLANE('',#74) ;
#106=PLANE('',#105) ;
#130=PLANE('',#129) ;
#154=PLANE('',#153) ;
#194=PLANE('',#193) ;
#234=PLANE('',#233) ;
#262=PLANE('',#261) ;
#286=PLANE('',#285) ;
#303=PLANE('',#302) ;
#320=PLANE('',#319) ;
#360=PLANE('',#359) ;
#391=PLANE('',#390) ;
#422=PLANE('',#421) ;
#444=PLANE('',#443) ;
#456=PLANE('',#455) ;
#9=PRODUCT_CATEGORY_RELATIONSHIP(' ',' ',#7,#8) ;
#6=PRODUCT_DEFINITION_FORMATION_WITH_SPECIFIED_SOURCE('',' ',#5,.NOT_KNOWN.) ;
#20=SHAPE_DEFINITION_REPRESENTATION(#11,#19) ;
#41=VERTEX_POINT('',#40) ;
#43=VERTEX_POINT('',#42) ;
#50=VERTEX_POINT('',#49) ;
#57=VERTEX_POINT('',#56) ;
#81=VERTEX_POINT('',#80) ;
#88=VERTEX_POINT('',#87) ;
#112=VERTEX_POINT('',#111) ;
#136=VERTEX_POINT('',#135) ;
#160=VERTEX_POINT('',#159) ;
#162=VERTEX_POINT('',#161) ;
#169=VERTEX_POINT('',#168) ;
#176=VERTEX_POINT('',#175) ;
#205=VERTEX_POINT('',#204) ;
#212=VERTEX_POINT('',#211) ;
#240=VERTEX_POINT('',#239) ;
#268=VERTEX_POINT('',#267) ;
#326=VERTEX_POINT('',#325) ;
#328=VERTEX_POINT('',#327) ;
#335=VERTEX_POINT('',#334) ;
#342=VERTEX_POINT('',#341) ;
#366=VERTEX_POINT('',#365) ;
#373=VERTEX_POINT('',#372) ;
#397=VERTEX_POINT('',#396) ;
#404=VERTEX_POINT('',#403) ;
#12=(LENGTH_UNIT()NAMED_UNIT(*)SI_UNIT(.MILLI.,.METRE.)) ;
#13=(NAMED_UNIT(*)PLANE_ANGLE_UNIT()SI_UNIT($,.RADIAN.)) ;
#14=(NAMED_UNIT(*)SI_UNIT($,.STERADIAN.)SOLID_ANGLE_UNIT()) ;
#16=(GEOMETRIC_REPRESENTATION_CONTEXT(3)GLOBAL_UNCERTAINTY_ASSIGNED_CONTEXT((#15))GLOBAL_UNIT_ASSIGNED_CONTEXT((#12,#13,#14))REPRESENTATION_CONTEXT(' ',' ')) ;
ENDSEC;
END-ISO-10303-21;
