ISO-10303-21;
HEADER;
FILE_DESCRIPTION(('CATIA V5 STEP Exchange','CAx-IF Rec.Pracs.--- Model Styling and Organization---1.5--- 2016-08-15','CAx-IF Rec.Pracs.---Supplemental Geometry---1.0---2011-11-01','CAx-IF Rec.Pracs.--- Composite Materials ---1.1---2010-07-15'),'2;1');

FILE_NAME('C:\\git\\TopOpt.jl\\projects\\hive\\hive_blocked.stp','2025-04-30T14:37:29+00:00',('none'),('none'),'CATIA Version 5-6 Release 2024 SP1','CATIA V5 STEP AP214 v3','none');

FILE_SCHEMA(('AUTOMOTIVE_DESIGN { 1 0 10303 214 1 1 1 1 }'));

ENDSEC;
DATA;
#5=PRODUCT('Hive','','',(#2)) ;
#2=PRODUCT_CONTEXT(' ',#1,'mechanical') ;
#1=APPLICATION_CONTEXT('automotive design') ;
#10=PRODUCT_DEFINITION('',' ',#6,#3) ;
#3=PRODUCT_DEFINITION_CONTEXT('part definition',#1,' ') ;
#11=PRODUCT_DEFINITION_SHAPE(' ',' ',#10) ;
#2144=MECHANICAL_DESIGN_GEOMETRIC_PRESENTATION_REPRESENTATION(' ',(#29,#182,#333,#484,#635,#786,#937,#1088,#1239,#1390,#1541,#1692,#1843,#1994),#16) ;
#19=SHAPE_REPRESENTATION(' ',(#18),#16) ;
#18=AXIS2_PLACEMENT_3D(' ',#17,$,$) ;
#34=AXIS2_PLACEMENT_3D('Plane Axis2P3D',#31,#32,#33) ;
#74=AXIS2_PLACEMENT_3D('Plane Axis2P3D',#71,#72,#73) ;
#105=AXIS2_PLACEMENT_3D('Plane Axis2P3D',#102,#103,#104) ;
#129=AXIS2_PLACEMENT_3D('Plane Axis2P3D',#126,#127,#128) ;
#153=AXIS2_PLACEMENT_3D('Plane Axis2P3D',#150,#151,#152) ;
#170=AXIS2_PLACEMENT_3D('Plane Axis2P3D',#167,#168,#169) ;
#187=AXIS2_PLACEMENT_3D('Plane Axis2P3D',#184,#185,#186) ;
#227=AXIS2_PLACEMENT_3D('Plane Axis2P3D',#224,#225,#226) ;
#258=AXIS2_PLACEMENT_3D('Plane Axis2P3D',#255,#256,#257) ;
#289=AXIS2_PLACEMENT_3D('Plane Axis2P3D',#286,#287,#288) ;
#311=AXIS2_PLACEMENT_3D('Plane Axis2P3D',#308,#309,#310) ;
#323=AXIS2_PLACEMENT_3D('Plane Axis2P3D',#320,#321,#322) ;
#338=AXIS2_PLACEMENT_3D('Plane Axis2P3D',#335,#336,#337) ;
#378=AXIS2_PLACEMENT_3D('Plane Axis2P3D',#375,#376,#377) ;
#409=AXIS2_PLACEMENT_3D('Plane Axis2P3D',#406,#407,#408) ;
#440=AXIS2_PLACEMENT_3D('Plane Axis2P3D',#437,#438,#439) ;
#462=AXIS2_PLACEMENT_3D('Plane Axis2P3D',#459,#460,#461) ;
#474=AXIS2_PLACEMENT_3D('Plane Axis2P3D',#471,#472,#473) ;
#489=AXIS2_PLACEMENT_3D('Plane Axis2P3D',#486,#487,#488) ;
#529=AXIS2_PLACEMENT_3D('Plane Axis2P3D',#526,#527,#528) ;
#560=AXIS2_PLACEMENT_3D('Plane Axis2P3D',#557,#558,#559) ;
#591=AXIS2_PLACEMENT_3D('Plane Axis2P3D',#588,#589,#590) ;
#613=AXIS2_PLACEMENT_3D('Plane Axis2P3D',#610,#611,#612) ;
#625=AXIS2_PLACEMENT_3D('Plane Axis2P3D',#622,#623,#624) ;
#640=AXIS2_PLACEMENT_3D('Plane Axis2P3D',#637,#638,#639) ;
#680=AXIS2_PLACEMENT_3D('Plane Axis2P3D',#677,#678,#679) ;
#711=AXIS2_PLACEMENT_3D('Plane Axis2P3D',#708,#709,#710) ;
#742=AXIS2_PLACEMENT_3D('Plane Axis2P3D',#739,#740,#741) ;
#764=AXIS2_PLACEMENT_3D('Plane Axis2P3D',#761,#762,#763) ;
#776=AXIS2_PLACEMENT_3D('Plane Axis2P3D',#773,#774,#775) ;
#791=AXIS2_PLACEMENT_3D('Plane Axis2P3D',#788,#789,#790) ;
#831=AXIS2_PLACEMENT_3D('Plane Axis2P3D',#828,#829,#830) ;
#862=AXIS2_PLACEMENT_3D('Plane Axis2P3D',#859,#860,#861) ;
#893=AXIS2_PLACEMENT_3D('Plane Axis2P3D',#890,#891,#892) ;
#915=AXIS2_PLACEMENT_3D('Plane Axis2P3D',#912,#913,#914) ;
#927=AXIS2_PLACEMENT_3D('Plane Axis2P3D',#924,#925,#926) ;
#942=AXIS2_PLACEMENT_3D('Plane Axis2P3D',#939,#940,#941) ;
#982=AXIS2_PLACEMENT_3D('Plane Axis2P3D',#979,#980,#981) ;
#1013=AXIS2_PLACEMENT_3D('Plane Axis2P3D',#1010,#1011,#1012) ;
#1044=AXIS2_PLACEMENT_3D('Plane Axis2P3D',#1041,#1042,#1043) ;
#1066=AXIS2_PLACEMENT_3D('Plane Axis2P3D',#1063,#1064,#1065) ;
#1078=AXIS2_PLACEMENT_3D('Plane Axis2P3D',#1075,#1076,#1077) ;
#1093=AXIS2_PLACEMENT_3D('Plane Axis2P3D',#1090,#1091,#1092) ;
#1133=AXIS2_PLACEMENT_3D('Plane Axis2P3D',#1130,#1131,#1132) ;
#1164=AXIS2_PLACEMENT_3D('Plane Axis2P3D',#1161,#1162,#1163) ;
#1195=AXIS2_PLACEMENT_3D('Plane Axis2P3D',#1192,#1193,#1194) ;
#1217=AXIS2_PLACEMENT_3D('Plane Axis2P3D',#1214,#1215,#1216) ;
#1229=AXIS2_PLACEMENT_3D('Plane Axis2P3D',#1226,#1227,#1228) ;
#1244=AXIS2_PLACEMENT_3D('Plane Axis2P3D',#1241,#1242,#1243) ;
#1284=AXIS2_PLACEMENT_3D('Plane Axis2P3D',#1281,#1282,#1283) ;
#1315=AXIS2_PLACEMENT_3D('Plane Axis2P3D',#1312,#1313,#1314) ;
#1346=AXIS2_PLACEMENT_3D('Plane Axis2P3D',#1343,#1344,#1345) ;
#1368=AXIS2_PLACEMENT_3D('Plane Axis2P3D',#1365,#1366,#1367) ;
#1380=AXIS2_PLACEMENT_3D('Plane Axis2P3D',#1377,#1378,#1379) ;
#1395=AXIS2_PLACEMENT_3D('Plane Axis2P3D',#1392,#1393,#1394) ;
#1435=AXIS2_PLACEMENT_3D('Plane Axis2P3D',#1432,#1433,#1434) ;
#1466=AXIS2_PLACEMENT_3D('Plane Axis2P3D',#1463,#1464,#1465) ;
#1497=AXIS2_PLACEMENT_3D('Plane Axis2P3D',#1494,#1495,#1496) ;
#1519=AXIS2_PLACEMENT_3D('Plane Axis2P3D',#1516,#1517,#1518) ;
#1531=AXIS2_PLACEMENT_3D('Plane Axis2P3D',#1528,#1529,#1530) ;
#1546=AXIS2_PLACEMENT_3D('Plane Axis2P3D',#1543,#1544,#1545) ;
#1586=AXIS2_PLACEMENT_3D('Plane Axis2P3D',#1583,#1584,#1585) ;
#1617=AXIS2_PLACEMENT_3D('Plane Axis2P3D',#1614,#1615,#1616) ;
#1648=AXIS2_PLACEMENT_3D('Plane Axis2P3D',#1645,#1646,#1647) ;
#1670=AXIS2_PLACEMENT_3D('Plane Axis2P3D',#1667,#1668,#1669) ;
#1682=AXIS2_PLACEMENT_3D('Plane Axis2P3D',#1679,#1680,#1681) ;
#1697=AXIS2_PLACEMENT_3D('Plane Axis2P3D',#1694,#1695,#1696) ;
#1737=AXIS2_PLACEMENT_3D('Plane Axis2P3D',#1734,#1735,#1736) ;
#1768=AXIS2_PLACEMENT_3D('Plane Axis2P3D',#1765,#1766,#1767) ;
#1799=AXIS2_PLACEMENT_3D('Plane Axis2P3D',#1796,#1797,#1798) ;
#1821=AXIS2_PLACEMENT_3D('Plane Axis2P3D',#1818,#1819,#1820) ;
#1833=AXIS2_PLACEMENT_3D('Plane Axis2P3D',#1830,#1831,#1832) ;
#1848=AXIS2_PLACEMENT_3D('Plane Axis2P3D',#1845,#1846,#1847) ;
#1888=AXIS2_PLACEMENT_3D('Plane Axis2P3D',#1885,#1886,#1887) ;
#1919=AXIS2_PLACEMENT_3D('Plane Axis2P3D',#1916,#1917,#1918) ;
#1950=AXIS2_PLACEMENT_3D('Plane Axis2P3D',#1947,#1948,#1949) ;
#1972=AXIS2_PLACEMENT_3D('Plane Axis2P3D',#1969,#1970,#1971) ;
#1984=AXIS2_PLACEMENT_3D('Plane Axis2P3D',#1981,#1982,#1983) ;
#1999=AXIS2_PLACEMENT_3D('Plane Axis2P3D',#1996,#1997,#1998) ;
#2039=AXIS2_PLACEMENT_3D('Plane Axis2P3D',#2036,#2037,#2038) ;
#2070=AXIS2_PLACEMENT_3D('Plane Axis2P3D',#2067,#2068,#2069) ;
#2101=AXIS2_PLACEMENT_3D('Plane Axis2P3D',#2098,#2099,#2100) ;
#2123=AXIS2_PLACEMENT_3D('Plane Axis2P3D',#2120,#2121,#2122) ;
#2135=AXIS2_PLACEMENT_3D('Plane Axis2P3D',#2132,#2133,#2134) ;
#17=CARTESIAN_POINT(' ',(0.,0.,0.)) ;
#31=CARTESIAN_POINT('Axis2P3D Location',(327.,19.,0.)) ;
#36=CARTESIAN_POINT('Line Origine',(175.74999999,19.,13.)) ;
#40=CARTESIAN_POINT('Vertex',(327.,19.,13.)) ;
#42=CARTESIAN_POINT('Vertex',(24.5,19.,13.)) ;
#45=CARTESIAN_POINT('Line Origine',(24.5,19.,6.5)) ;
#49=CARTESIAN_POINT('Vertex',(24.5,19.,0.)) ;
#52=CARTESIAN_POINT('Line Origine',(175.75,19.,0.)) ;
#56=CARTESIAN_POINT('Vertex',(327.,19.,0.)) ;
#59=CARTESIAN_POINT('Line Origine',(327.,19.,6.5)) ;
#71=CARTESIAN_POINT('Axis2P3D Location',(24.5,221.5,0.)) ;
#76=CARTESIAN_POINT('Line Origine',(24.5,221.5,6.5)) ;
#80=CARTESIAN_POINT('Vertex',(24.5,221.5,0.)) ;
#82=CARTESIAN_POINT('Vertex',(24.5,221.5,13.)) ;
#85=CARTESIAN_POINT('Line Origine',(24.5,120.25,0.)) ;
#90=CARTESIAN_POINT('Line Origine',(24.5,120.24999999,13.)) ;
#102=CARTESIAN_POINT('Axis2P3D Location',(0.,0.,13.)) ;
#107=CARTESIAN_POINT('Line Origine',(327.,120.25,13.)) ;
#111=CARTESIAN_POINT('Vertex',(327.,221.5,13.)) ;
#114=CARTESIAN_POINT('Line Origine',(175.75,221.5,13.)) ;
#126=CARTESIAN_POINT('Axis2P3D Location',(0.,0.,0.)) ;
#131=CARTESIAN_POINT('Line Origine',(175.75,221.5,0.)) ;
#135=CARTESIAN_POINT('Vertex',(327.,221.5,0.)) ;
#138=CARTESIAN_POINT('Line Origine',(327.,120.25,0.)) ;
#150=CARTESIAN_POINT('Axis2P3D Location',(327.,0.,0.)) ;
#155=CARTESIAN_POINT('Line Origine',(327.,221.5,6.5)) ;
#167=CARTESIAN_POINT('Axis2P3D Location',(327.,221.5,0.)) ;
#184=CARTESIAN_POINT('Axis2P3D Location',(19.5,221.5,13.)) ;
#189=CARTESIAN_POINT('Line Origine',(327.,221.5,15.5)) ;
#193=CARTESIAN_POINT('Vertex',(327.,221.5,13.)) ;
#195=CARTESIAN_POINT('Vertex',(327.,221.5,18.)) ;
#198=CARTESIAN_POINT('Line Origine',(173.25,221.5,13.)) ;
#202=CARTESIAN_POINT('Vertex',(19.5,221.5,13.)) ;
#205=CARTESIAN_POINT('Line Origine',(19.5,221.5,15.5)) ;
#209=CARTESIAN_POINT('Vertex',(19.5,221.5,18.)) ;
#212=CARTESIAN_POINT('Line Origine',(173.25,221.5,18.)) ;
#224=CARTESIAN_POINT('Axis2P3D Location',(19.5,14.,13.)) ;
#229=CARTESIAN_POINT('Line Origine',(19.5,117.75,13.)) ;
#233=CARTESIAN_POINT('Vertex',(19.5,14.,13.)) ;
#236=CARTESIAN_POINT('Line Origine',(19.5,14.,15.5)) ;
#240=CARTESIAN_POINT('Vertex',(19.5,14.,18.)) ;
#243=CARTESIAN_POINT('Line Origine',(19.5,117.75,18.)) ;
#255=CARTESIAN_POINT('Axis2P3D Location',(327.,14.,13.)) ;
#260=CARTESIAN_POINT('Line Origine',(173.25,14.,13.)) ;
#264=CARTESIAN_POINT('Vertex',(327.,14.,13.)) ;
#267=CARTESIAN_POINT('Line Origine',(327.,14.,15.5)) ;
#271=CARTESIAN_POINT('Vertex',(327.,14.,18.)) ;
#274=CARTESIAN_POINT('Line Origine',(173.25,14.,18.)) ;
#286=CARTESIAN_POINT('Axis2P3D Location',(327.,221.5,13.)) ;
#291=CARTESIAN_POINT('Line Origine',(327.,117.75,13.)) ;
#296=CARTESIAN_POINT('Line Origine',(327.,117.75,18.)) ;
#308=CARTESIAN_POINT('Axis2P3D Location',(0.,0.,13.)) ;
#320=CARTESIAN_POINT('Axis2P3D Location',(0.,0.,18.)) ;
#335=CARTESIAN_POINT('Axis2P3D Location',(19.5,14.,18.)) ;
#340=CARTESIAN_POINT('Line Origine',(19.5,14.,180.)) ;
#344=CARTESIAN_POINT('Vertex',(19.5,14.,18.)) ;
#346=CARTESIAN_POINT('Vertex',(19.5,14.,342.)) ;
#349=CARTESIAN_POINT('Line Origine',(173.25,14.,18.)) ;
#353=CARTESIAN_POINT('Vertex',(327.,14.,18.)) ;
#356=CARTESIAN_POINT('Line Origine',(327.,14.,180.)) ;
#360=CARTESIAN_POINT('Vertex',(327.,14.,342.)) ;
#363=CARTESIAN_POINT('Line Origine',(173.25,14.,342.)) ;
#375=CARTESIAN_POINT('Axis2P3D Location',(327.,14.,18.)) ;
#380=CARTESIAN_POINT('Line Origine',(327.,16.5,18.)) ;
#384=CARTESIAN_POINT('Vertex',(327.,19.,18.)) ;
#387=CARTESIAN_POINT('Line Origine',(327.,19.,180.)) ;
#391=CARTESIAN_POINT('Vertex',(327.,19.,342.)) ;
#394=CARTESIAN_POINT('Line Origine',(327.,16.5,342.)) ;
#406=CARTESIAN_POINT('Axis2P3D Location',(327.,19.,18.)) ;
#411=CARTESIAN_POINT('Line Origine',(173.25,19.,18.)) ;
#415=CARTESIAN_POINT('Vertex',(19.5,19.,18.)) ;
#418=CARTESIAN_POINT('Line Origine',(19.5,19.,180.)) ;
#422=CARTESIAN_POINT('Vertex',(19.5,19.,342.)) ;
#425=CARTESIAN_POINT('Line Origine',(173.25,19.,342.)) ;
#437=CARTESIAN_POINT('Axis2P3D Location',(19.5,19.,18.)) ;
#442=CARTESIAN_POINT('Line Origine',(19.5,16.5,18.)) ;
#447=CARTESIAN_POINT('Line Origine',(19.5,16.5,342.)) ;
#459=CARTESIAN_POINT('Axis2P3D Location',(0.,0.,18.)) ;
#471=CARTESIAN_POINT('Axis2P3D Location',(0.,0.,342.)) ;
#486=CARTESIAN_POINT('Axis2P3D Location',(327.,19.,342.)) ;
#491=CARTESIAN_POINT('Line Origine',(327.,14.,352.)) ;
#495=CARTESIAN_POINT('Vertex',(327.,14.,342.)) ;
#497=CARTESIAN_POINT('Vertex',(327.,14.,362.)) ;
#500=CARTESIAN_POINT('Line Origine',(327.,16.5,342.)) ;
#504=CARTESIAN_POINT('Vertex',(327.,19.,342.)) ;
#507=CARTESIAN_POINT('Line Origine',(327.,19.,352.)) ;
#511=CARTESIAN_POINT('Vertex',(327.,19.,362.)) ;
#514=CARTESIAN_POINT('Line Origine',(327.,16.5,362.)) ;
#526=CARTESIAN_POINT('Axis2P3D Location',(19.5,19.,342.)) ;
#531=CARTESIAN_POINT('Line Origine',(173.25,19.,342.)) ;
#535=CARTESIAN_POINT('Vertex',(19.5,19.,342.)) ;
#538=CARTESIAN_POINT('Line Origine',(19.5,19.,352.)) ;
#542=CARTESIAN_POINT('Vertex',(19.5,19.,362.)) ;
#545=CARTESIAN_POINT('Line Origine',(173.25,19.,362.)) ;
#557=CARTESIAN_POINT('Axis2P3D Location',(19.5,14.,342.)) ;
#562=CARTESIAN_POINT('Line Origine',(19.5,16.5,342.)) ;
#566=CARTESIAN_POINT('Vertex',(19.5,14.,342.)) ;
#569=CARTESIAN_POINT('Line Origine',(19.5,14.,352.)) ;
#573=CARTESIAN_POINT('Vertex',(19.5,14.,362.)) ;
#576=CARTESIAN_POINT('Line Origine',(19.5,16.5,362.)) ;
#588=CARTESIAN_POINT('Axis2P3D Location',(327.,14.,342.)) ;
#593=CARTESIAN_POINT('Line Origine',(173.25,14.,342.)) ;
#598=CARTESIAN_POINT('Line Origine',(173.25,14.,362.)) ;
#610=CARTESIAN_POINT('Axis2P3D Location',(0.,0.,342.)) ;
#622=CARTESIAN_POINT('Axis2P3D Location',(0.,0.,362.)) ;
#637=CARTESIAN_POINT('Axis2P3D Location',(19.5,221.5,18.)) ;
#642=CARTESIAN_POINT('Line Origine',(19.5,221.5,180.)) ;
#646=CARTESIAN_POINT('Vertex',(19.5,221.5,18.)) ;
#648=CARTESIAN_POINT('Vertex',(19.5,221.5,342.)) ;
#651=CARTESIAN_POINT('Line Origine',(19.5,120.25,18.)) ;
#655=CARTESIAN_POINT('Vertex',(19.5,19.,18.)) ;
#658=CARTESIAN_POINT('Line Origine',(19.5,19.,180.)) ;
#662=CARTESIAN_POINT('Vertex',(19.5,19.,342.)) ;
#665=CARTESIAN_POINT('Line Origine',(19.5,120.25,342.)) ;
#677=CARTESIAN_POINT('Axis2P3D Location',(24.5,19.,18.)) ;
#682=CARTESIAN_POINT('Line Origine',(22.,19.,18.)) ;
#686=CARTESIAN_POINT('Vertex',(24.5,19.,18.)) ;
#689=CARTESIAN_POINT('Line Origine',(24.5,19.,180.)) ;
#693=CARTESIAN_POINT('Vertex',(24.5,19.,342.)) ;
#696=CARTESIAN_POINT('Line Origine',(22.,19.,342.)) ;
#708=CARTESIAN_POINT('Axis2P3D Location',(24.5,19.,18.)) ;
#713=CARTESIAN_POINT('Line Origine',(24.5,120.25,18.)) ;
#717=CARTESIAN_POINT('Vertex',(24.5,221.5,18.)) ;
#720=CARTESIAN_POINT('Line Origine',(24.5,221.5,180.)) ;
#724=CARTESIAN_POINT('Vertex',(24.5,221.5,342.)) ;
#727=CARTESIAN_POINT('Line Origine',(24.5,120.25,342.)) ;
#739=CARTESIAN_POINT('Axis2P3D Location',(19.5,221.5,18.)) ;
#744=CARTESIAN_POINT('Line Origine',(22.,221.5,18.)) ;
#749=CARTESIAN_POINT('Line Origine',(22.,221.5,342.)) ;
#761=CARTESIAN_POINT('Axis2P3D Location',(0.,0.,18.)) ;
#773=CARTESIAN_POINT('Axis2P3D Location',(0.,0.,342.)) ;
#788=CARTESIAN_POINT('Axis2P3D Location',(24.5,19.,342.)) ;
#793=CARTESIAN_POINT('Line Origine',(19.5,19.,352.)) ;
#797=CARTESIAN_POINT('Vertex',(19.5,19.,342.)) ;
#799=CARTESIAN_POINT('Vertex',(19.5,19.,362.)) ;
#802=CARTESIAN_POINT('Line Origine',(22.,19.,342.)) ;
#806=CARTESIAN_POINT('Vertex',(24.5,19.,342.)) ;
#809=CARTESIAN_POINT('Line Origine',(24.5,19.,352.)) ;
#813=CARTESIAN_POINT('Vertex',(24.5,19.,362.)) ;
#816=CARTESIAN_POINT('Line Origine',(22.,19.,362.)) ;
#828=CARTESIAN_POINT('Axis2P3D Location',(24.5,221.5,342.)) ;
#833=CARTESIAN_POINT('Line Origine',(24.5,120.25,342.)) ;
#837=CARTESIAN_POINT('Vertex',(24.5,221.5,342.)) ;
#840=CARTESIAN_POINT('Line Origine',(24.5,221.5,352.)) ;
#844=CARTESIAN_POINT('Vertex',(24.5,221.5,362.)) ;
#847=CARTESIAN_POINT('Line Origine',(24.5,120.25,362.)) ;
#859=CARTESIAN_POINT('Axis2P3D Location',(19.5,221.5,342.)) ;
#864=CARTESIAN_POINT('Line Origine',(22.,221.5,342.)) ;
#868=CARTESIAN_POINT('Vertex',(19.5,221.5,342.)) ;
#871=CARTESIAN_POINT('Line Origine',(19.5,221.5,352.)) ;
#875=CARTESIAN_POINT('Vertex',(19.5,221.5,362.)) ;
#878=CARTESIAN_POINT('Line Origine',(22.,221.5,362.)) ;
#890=CARTESIAN_POINT('Axis2P3D Location',(19.5,19.,342.)) ;
#895=CARTESIAN_POINT('Line Origine',(19.5,120.25,342.)) ;
#900=CARTESIAN_POINT('Line Origine',(19.5,120.25,362.)) ;
#912=CARTESIAN_POINT('Axis2P3D Location',(0.,0.,342.)) ;
#924=CARTESIAN_POINT('Axis2P3D Location',(0.,0.,362.)) ;
#939=CARTESIAN_POINT('Axis2P3D Location',(0.,0.,13.)) ;
#944=CARTESIAN_POINT('Line Origine',(0.,0.,177.5)) ;
#948=CARTESIAN_POINT('Vertex',(0.,0.,13.)) ;
#950=CARTESIAN_POINT('Vertex',(0.,0.,342.)) ;
#953=CARTESIAN_POINT('Line Origine',(9.75,0.,13.)) ;
#957=CARTESIAN_POINT('Vertex',(19.5,0.,13.)) ;
#960=CARTESIAN_POINT('Line Origine',(19.5,0.,177.5)) ;
#964=CARTESIAN_POINT('Vertex',(19.5,0.,342.)) ;
#967=CARTESIAN_POINT('Line Origine',(9.75,0.,342.)) ;
#979=CARTESIAN_POINT('Axis2P3D Location',(19.5,0.,13.)) ;
#984=CARTESIAN_POINT('Line Origine',(19.5,7.,13.)) ;
#988=CARTESIAN_POINT('Vertex',(19.5,14.,13.)) ;
#991=CARTESIAN_POINT('Line Origine',(19.5,14.,177.5)) ;
#995=CARTESIAN_POINT('Vertex',(19.5,14.,342.)) ;
#998=CARTESIAN_POINT('Line Origine',(19.5,7.,342.)) ;
#1010=CARTESIAN_POINT('Axis2P3D Location',(19.5,14.,13.)) ;
#1015=CARTESIAN_POINT('Line Origine',(9.75,14.,13.)) ;
#1019=CARTESIAN_POINT('Vertex',(0.,14.,13.)) ;
#1022=CARTESIAN_POINT('Line Origine',(0.,14.,177.5)) ;
#1026=CARTESIAN_POINT('Vertex',(0.,14.,342.)) ;
#1029=CARTESIAN_POINT('Line Origine',(9.75,14.,342.)) ;
#1041=CARTESIAN_POINT('Axis2P3D Location',(0.,14.,13.)) ;
#1046=CARTESIAN_POINT('Line Origine',(0.,7.,13.)) ;
#1051=CARTESIAN_POINT('Line Origine',(0.,7.,342.)) ;
#1063=CARTESIAN_POINT('Axis2P3D Location',(0.,0.,13.)) ;
#1075=CARTESIAN_POINT('Axis2P3D Location',(0.,0.,342.)) ;
#1090=CARTESIAN_POINT('Axis2P3D Location',(19.5,14.,342.)) ;
#1095=CARTESIAN_POINT('Line Origine',(19.5,0.,352.)) ;
#1099=CARTESIAN_POINT('Vertex',(19.5,0.,342.)) ;
#1101=CARTESIAN_POINT('Vertex',(19.5,0.,362.)) ;
#1104=CARTESIAN_POINT('Line Origine',(19.5,7.,342.)) ;
#1108=CARTESIAN_POINT('Vertex',(19.5,14.,342.)) ;
#1111=CARTESIAN_POINT('Line Origine',(19.5,14.,352.)) ;
#1115=CARTESIAN_POINT('Vertex',(19.5,14.,362.)) ;
#1118=CARTESIAN_POINT('Line Origine',(19.5,7.,362.)) ;
#1130=CARTESIAN_POINT('Axis2P3D Location',(-8.881784197E-16,14.,342.)) ;
#1135=CARTESIAN_POINT('Line Origine',(9.75,14.,342.)) ;
#1139=CARTESIAN_POINT('Vertex',(-8.881784197E-16,14.,342.)) ;
#1142=CARTESIAN_POINT('Line Origine',(0.,14.,352.)) ;
#1146=CARTESIAN_POINT('Vertex',(-8.881784197E-16,14.,362.)) ;
#1149=CARTESIAN_POINT('Line Origine',(9.75,14.,362.)) ;
#1161=CARTESIAN_POINT('Axis2P3D Location',(0.,8.881784197E-16,342.)) ;
#1166=CARTESIAN_POINT('Line Origine',(0.,7.,342.)) ;
#1170=CARTESIAN_POINT('Vertex',(0.,-2.6645352591E-15,342.)) ;
#1173=CARTESIAN_POINT('Line Origine',(0.,0.,352.)) ;
#1177=CARTESIAN_POINT('Vertex',(0.,-2.6645352591E-15,362.)) ;
#1180=CARTESIAN_POINT('Line Origine',(0.,7.,362.)) ;
#1192=CARTESIAN_POINT('Axis2P3D Location',(19.5,0.,342.)) ;
#1197=CARTESIAN_POINT('Line Origine',(9.75,0.,342.)) ;
#1202=CARTESIAN_POINT('Line Origine',(9.75,0.,362.)) ;
#1214=CARTESIAN_POINT('Axis2P3D Location',(0.,0.,342.)) ;
#1226=CARTESIAN_POINT('Axis2P3D Location',(0.,0.,362.)) ;
#1241=CARTESIAN_POINT('Axis2P3D Location',(19.5,0.,13.)) ;
#1246=CARTESIAN_POINT('Line Origine',(19.5,0.,177.5)) ;
#1250=CARTESIAN_POINT('Vertex',(19.5,0.,13.)) ;
#1252=CARTESIAN_POINT('Vertex',(19.5,0.,342.)) ;
#1255=CARTESIAN_POINT('Line Origine',(173.25,0.,13.)) ;
#1259=CARTESIAN_POINT('Vertex',(327.,0.,13.)) ;
#1262=CARTESIAN_POINT('Line Origine',(327.,0.,177.5)) ;
#1266=CARTESIAN_POINT('Vertex',(327.,0.,342.)) ;
#1269=CARTESIAN_POINT('Line Origine',(173.25,0.,342.)) ;
#1281=CARTESIAN_POINT('Axis2P3D Location',(327.,0.,13.)) ;
#1286=CARTESIAN_POINT('Line Origine',(327.,7.,13.)) ;
#1290=CARTESIAN_POINT('Vertex',(327.,14.,13.)) ;
#1293=CARTESIAN_POINT('Line Origine',(327.,14.,177.5)) ;
#1297=CARTESIAN_POINT('Vertex',(327.,14.,342.)) ;
#1300=CARTESIAN_POINT('Line Origine',(327.,7.,342.)) ;
#1312=CARTESIAN_POINT('Axis2P3D Location',(327.,14.,13.)) ;
#1317=CARTESIAN_POINT('Line Origine',(173.25,14.,13.)) ;
#1321=CARTESIAN_POINT('Vertex',(19.5,14.,13.)) ;
#1324=CARTESIAN_POINT('Line Origine',(19.5,14.,177.5)) ;
#1328=CARTESIAN_POINT('Vertex',(19.5,14.,342.)) ;
#1331=CARTESIAN_POINT('Line Origine',(173.25,14.,342.)) ;
#1343=CARTESIAN_POINT('Axis2P3D Location',(19.5,14.,13.)) ;
#1348=CARTESIAN_POINT('Line Origine',(19.5,7.,13.)) ;
#1353=CARTESIAN_POINT('Line Origine',(19.5,7.,342.)) ;
#1365=CARTESIAN_POINT('Axis2P3D Location',(0.,0.,13.)) ;
#1377=CARTESIAN_POINT('Axis2P3D Location',(0.,0.,342.)) ;
#1392=CARTESIAN_POINT('Axis2P3D Location',(327.,14.,342.)) ;
#1397=CARTESIAN_POINT('Line Origine',(327.,0.,352.)) ;
#1401=CARTESIAN_POINT('Vertex',(327.,-2.84217094304E-14,342.)) ;
#1403=CARTESIAN_POINT('Vertex',(327.,-2.84217094304E-14,362.)) ;
#1406=CARTESIAN_POINT('Line Origine',(327.,7.,342.)) ;
#1410=CARTESIAN_POINT('Vertex',(327.,14.,342.)) ;
#1413=CARTESIAN_POINT('Line Origine',(327.,14.,352.)) ;
#1417=CARTESIAN_POINT('Vertex',(327.,14.,362.)) ;
#1420=CARTESIAN_POINT('Line Origine',(327.,7.,362.)) ;
#1432=CARTESIAN_POINT('Axis2P3D Location',(19.5,14.,342.)) ;
#1437=CARTESIAN_POINT('Line Origine',(173.25,14.,342.)) ;
#1441=CARTESIAN_POINT('Vertex',(19.5,14.,342.)) ;
#1444=CARTESIAN_POINT('Line Origine',(19.5,14.,352.)) ;
#1448=CARTESIAN_POINT('Vertex',(19.5,14.,362.)) ;
#1451=CARTESIAN_POINT('Line Origine',(173.25,14.,362.)) ;
#1463=CARTESIAN_POINT('Axis2P3D Location',(19.5,1.7763568394E-15,342.)) ;
#1468=CARTESIAN_POINT('Line Origine',(19.5,7.,342.)) ;
#1472=CARTESIAN_POINT('Vertex',(19.5,5.86197757002E-14,342.)) ;
#1475=CARTESIAN_POINT('Line Origine',(19.5,8.881784197E-16,352.)) ;
#1479=CARTESIAN_POINT('Vertex',(19.5,5.86197757002E-14,362.)) ;
#1482=CARTESIAN_POINT('Line Origine',(19.5,7.,362.)) ;
#1494=CARTESIAN_POINT('Axis2P3D Location',(327.,0.,342.)) ;
#1499=CARTESIAN_POINT('Line Origine',(173.25,0.,342.)) ;
#1504=CARTESIAN_POINT('Line Origine',(173.25,0.,362.)) ;
#1516=CARTESIAN_POINT('Axis2P3D Location',(0.,0.,342.)) ;
#1528=CARTESIAN_POINT('Axis2P3D Location',(0.,0.,362.)) ;
#1543=CARTESIAN_POINT('Axis2P3D Location',(-1.7763568394E-15,14.,13.)) ;
#1548=CARTESIAN_POINT('Line Origine',(-1.7763568394E-15,14.,177.5)) ;
#1552=CARTESIAN_POINT('Vertex',(-1.7763568394E-15,14.,13.)) ;
#1554=CARTESIAN_POINT('Vertex',(-1.7763568394E-15,14.,342.)) ;
#1557=CARTESIAN_POINT('Line Origine',(9.75,14.,13.)) ;
#1561=CARTESIAN_POINT('Vertex',(19.5,14.,13.)) ;
#1564=CARTESIAN_POINT('Line Origine',(19.5,14.,177.5)) ;
#1568=CARTESIAN_POINT('Vertex',(19.5,14.,342.)) ;
#1571=CARTESIAN_POINT('Line Origine',(9.75,14.,342.)) ;
#1583=CARTESIAN_POINT('Axis2P3D Location',(19.5,14.,13.)) ;
#1588=CARTESIAN_POINT('Line Origine',(19.5,117.75,13.)) ;
#1592=CARTESIAN_POINT('Vertex',(19.5,221.5,13.)) ;
#1595=CARTESIAN_POINT('Line Origine',(19.5,221.5,177.5)) ;
#1599=CARTESIAN_POINT('Vertex',(19.5,221.5,342.)) ;
#1602=CARTESIAN_POINT('Line Origine',(19.5,117.75,342.)) ;
#1614=CARTESIAN_POINT('Axis2P3D Location',(19.5,221.5,13.)) ;
#1619=CARTESIAN_POINT('Line Origine',(9.75,221.5,13.)) ;
#1623=CARTESIAN_POINT('Vertex',(-8.881784197E-15,221.5,13.)) ;
#1626=CARTESIAN_POINT('Line Origine',(-7.1054273576E-15,221.5,177.5)) ;
#1630=CARTESIAN_POINT('Vertex',(-8.881784197E-15,221.5,342.)) ;
#1633=CARTESIAN_POINT('Line Origine',(9.75,221.5,342.)) ;
#1645=CARTESIAN_POINT('Axis2P3D Location',(-8.881784197E-16,221.5,13.)) ;
#1650=CARTESIAN_POINT('Line Origine',(-8.881784197E-16,117.75,13.)) ;
#1655=CARTESIAN_POINT('Line Origine',(-8.881784197E-16,117.75,342.)) ;
#1667=CARTESIAN_POINT('Axis2P3D Location',(0.,0.,13.)) ;
#1679=CARTESIAN_POINT('Axis2P3D Location',(0.,0.,342.)) ;
#1694=CARTESIAN_POINT('Axis2P3D Location',(-1.7763568394E-15,14.,342.)) ;
#1699=CARTESIAN_POINT('Line Origine',(-1.7763568394E-15,14.,352.)) ;
#1703=CARTESIAN_POINT('Vertex',(-1.7763568394E-15,14.,342.)) ;
#1705=CARTESIAN_POINT('Vertex',(-1.7763568394E-15,14.,362.)) ;
#1708=CARTESIAN_POINT('Line Origine',(9.75,14.,342.)) ;
#1712=CARTESIAN_POINT('Vertex',(19.5,14.,342.)) ;
#1715=CARTESIAN_POINT('Line Origine',(19.5,14.,352.)) ;
#1719=CARTESIAN_POINT('Vertex',(19.5,14.,362.)) ;
#1722=CARTESIAN_POINT('Line Origine',(9.75,14.,362.)) ;
#1734=CARTESIAN_POINT('Axis2P3D Location',(19.5,14.,342.)) ;
#1739=CARTESIAN_POINT('Line Origine',(19.5,117.75,342.)) ;
#1743=CARTESIAN_POINT('Vertex',(19.5,221.5,342.)) ;
#1746=CARTESIAN_POINT('Line Origine',(19.5,221.5,352.)) ;
#1750=CARTESIAN_POINT('Vertex',(19.5,221.5,362.)) ;
#1753=CARTESIAN_POINT('Line Origine',(19.5,117.75,362.)) ;
#1765=CARTESIAN_POINT('Axis2P3D Location',(19.5,221.5,342.)) ;
#1770=CARTESIAN_POINT('Line Origine',(9.75,221.5,342.)) ;
#1774=CARTESIAN_POINT('Vertex',(-8.881784197E-15,221.5,342.)) ;
#1777=CARTESIAN_POINT('Line Origine',(-7.1054273576E-15,221.5,352.)) ;
#1781=CARTESIAN_POINT('Vertex',(-8.881784197E-15,221.5,362.)) ;
#1784=CARTESIAN_POINT('Line Origine',(9.75,221.5,362.)) ;
#1796=CARTESIAN_POINT('Axis2P3D Location',(-8.881784197E-16,221.5,342.)) ;
#1801=CARTESIAN_POINT('Line Origine',(-8.881784197E-16,117.75,342.)) ;
#1806=CARTESIAN_POINT('Line Origine',(-8.881784197E-16,117.75,362.)) ;
#1818=CARTESIAN_POINT('Axis2P3D Location',(0.,0.,342.)) ;
#1830=CARTESIAN_POINT('Axis2P3D Location',(0.,0.,362.)) ;
#1845=CARTESIAN_POINT('Axis2P3D Location',(327.,1.7763568394E-15,0.)) ;
#1850=CARTESIAN_POINT('Line Origine',(327.,9.5,13.)) ;
#1854=CARTESIAN_POINT('Vertex',(327.,19.,13.)) ;
#1856=CARTESIAN_POINT('Vertex',(327.,1.7763568394E-15,13.)) ;
#1859=CARTESIAN_POINT('Line Origine',(327.,1.7763568394E-15,6.5)) ;
#1863=CARTESIAN_POINT('Vertex',(327.,1.7763568394E-15,0.)) ;
#1866=CARTESIAN_POINT('Line Origine',(327.,9.5,0.)) ;
#1870=CARTESIAN_POINT('Vertex',(327.,19.,0.)) ;
#1873=CARTESIAN_POINT('Line Origine',(327.,19.,6.5)) ;
#1885=CARTESIAN_POINT('Axis2P3D Location',(327.,0.,0.)) ;
#1890=CARTESIAN_POINT('Line Origine',(163.5,0.,13.)) ;
#1894=CARTESIAN_POINT('Vertex',(0.,0.,13.)) ;
#1897=CARTESIAN_POINT('Line Origine',(0.,0.,6.5)) ;
#1901=CARTESIAN_POINT('Vertex',(0.,0.,0.)) ;
#1904=CARTESIAN_POINT('Line Origine',(163.5,0.,0.)) ;
#1916=CARTESIAN_POINT('Axis2P3D Location',(0.,19.,0.)) ;
#1921=CARTESIAN_POINT('Line Origine',(0.,9.5,13.)) ;
#1925=CARTESIAN_POINT('Vertex',(0.,19.,13.)) ;
#1928=CARTESIAN_POINT('Line Origine',(0.,19.,6.5)) ;
#1932=CARTESIAN_POINT('Vertex',(0.,19.,0.)) ;
#1935=CARTESIAN_POINT('Line Origine',(0.,9.5,0.)) ;
#1947=CARTESIAN_POINT('Axis2P3D Location',(0.,19.,0.)) ;
#1952=CARTESIAN_POINT('Line Origine',(163.5,19.,13.)) ;
#1957=CARTESIAN_POINT('Line Origine',(163.5,19.,0.)) ;
#1969=CARTESIAN_POINT('Axis2P3D Location',(0.,0.,0.)) ;
#1981=CARTESIAN_POINT('Axis2P3D Location',(0.,0.,13.)) ;
#1996=CARTESIAN_POINT('Axis2P3D Location',(-1.06581410364E-14,221.5,0.)) ;
#2001=CARTESIAN_POINT('Line Origine',(12.25,221.5,13.)) ;
#2005=CARTESIAN_POINT('Vertex',(-1.06581410364E-14,221.5,13.)) ;
#2007=CARTESIAN_POINT('Vertex',(24.5,221.5,13.)) ;
#2010=CARTESIAN_POINT('Line Origine',(24.5,221.5,6.5)) ;
#2014=CARTESIAN_POINT('Vertex',(24.5,221.5,0.)) ;
#2017=CARTESIAN_POINT('Line Origine',(12.25,221.5,0.)) ;
#2021=CARTESIAN_POINT('Vertex',(-1.06581410364E-14,221.5,0.)) ;
#2024=CARTESIAN_POINT('Line Origine',(-1.06581410364E-14,221.5,6.5)) ;
#2036=CARTESIAN_POINT('Axis2P3D Location',(24.5,221.5,0.)) ;
#2041=CARTESIAN_POINT('Line Origine',(24.5,120.25,13.)) ;
#2045=CARTESIAN_POINT('Vertex',(24.5,19.,13.)) ;
#2048=CARTESIAN_POINT('Line Origine',(24.5,19.,6.5)) ;
#2052=CARTESIAN_POINT('Vertex',(24.5,19.,0.)) ;
#2055=CARTESIAN_POINT('Line Origine',(24.5,120.25,0.)) ;
#2067=CARTESIAN_POINT('Axis2P3D Location',(24.5,19.,0.)) ;
#2072=CARTESIAN_POINT('Line Origine',(12.25,19.,13.)) ;
#2076=CARTESIAN_POINT('Vertex',(-1.42108547152E-14,19.,13.)) ;
#2079=CARTESIAN_POINT('Line Origine',(-1.42108547152E-14,19.,6.5)) ;
#2083=CARTESIAN_POINT('Vertex',(-1.42108547152E-14,19.,0.)) ;
#2086=CARTESIAN_POINT('Line Origine',(12.25,19.,0.)) ;
#2098=CARTESIAN_POINT('Axis2P3D Location',(-1.06581410364E-14,19.,0.)) ;
#2103=CARTESIAN_POINT('Line Origine',(-1.06581410364E-14,120.25,13.)) ;
#2108=CARTESIAN_POINT('Line Origine',(-1.06581410364E-14,120.25,0.)) ;
#2120=CARTESIAN_POINT('Axis2P3D Location',(0.,0.,0.)) ;
#2132=CARTESIAN_POINT('Axis2P3D Location',(0.,0.,13.)) ;
#32=DIRECTION('Axis2P3D Direction',(-0.,1.,0.)) ;
#33=DIRECTION('Axis2P3D XDirection',(-1.,-0.,0.)) ;
#37=DIRECTION('Vector Direction',(-1.,0.,0.)) ;
#46=DIRECTION('Vector Direction',(0.,0.,1.)) ;
#53=DIRECTION('Vector Direction',(-1.,0.,0.)) ;
#60=DIRECTION('Vector Direction',(0.,0.,1.)) ;
#72=DIRECTION('Axis2P3D Direction',(-1.,0.,0.)) ;
#73=DIRECTION('Axis2P3D XDirection',(0.,-1.,0.)) ;
#77=DIRECTION('Vector Direction',(0.,0.,1.)) ;
#86=DIRECTION('Vector Direction',(0.,-1.,0.)) ;
#91=DIRECTION('Vector Direction',(0.,-1.,0.)) ;
#103=DIRECTION('Axis2P3D Direction',(0.,0.,1.)) ;
#104=DIRECTION('Axis2P3D XDirection',(1.,0.,0.)) ;
#108=DIRECTION('Vector Direction',(0.,1.,0.)) ;
#115=DIRECTION('Vector Direction',(-1.,0.,0.)) ;
#127=DIRECTION('Axis2P3D Direction',(0.,0.,1.)) ;
#128=DIRECTION('Axis2P3D XDirection',(1.,0.,0.)) ;
#132=DIRECTION('Vector Direction',(-1.,0.,0.)) ;
#139=DIRECTION('Vector Direction',(0.,1.,0.)) ;
#151=DIRECTION('Axis2P3D Direction',(1.,0.,0.)) ;
#152=DIRECTION('Axis2P3D XDirection',(0.,1.,0.)) ;
#156=DIRECTION('Vector Direction',(0.,0.,1.)) ;
#168=DIRECTION('Axis2P3D Direction',(0.,1.,-0.)) ;
#169=DIRECTION('Axis2P3D XDirection',(-1.,0.,0.)) ;
#185=DIRECTION('Axis2P3D Direction',(0.,-1.,0.)) ;
#186=DIRECTION('Axis2P3D XDirection',(1.,0.,0.)) ;
#190=DIRECTION('Vector Direction',(0.,0.,1.)) ;
#199=DIRECTION('Vector Direction',(1.,0.,0.)) ;
#206=DIRECTION('Vector Direction',(0.,0.,1.)) ;
#213=DIRECTION('Vector Direction',(1.,0.,0.)) ;
#225=DIRECTION('Axis2P3D Direction',(1.,0.,0.)) ;
#226=DIRECTION('Axis2P3D XDirection',(0.,1.,0.)) ;
#230=DIRECTION('Vector Direction',(0.,1.,0.)) ;
#237=DIRECTION('Vector Direction',(0.,0.,1.)) ;
#244=DIRECTION('Vector Direction',(0.,1.,0.)) ;
#256=DIRECTION('Axis2P3D Direction',(0.,1.,-0.)) ;
#257=DIRECTION('Axis2P3D XDirection',(-1.,0.,0.)) ;
#261=DIRECTION('Vector Direction',(-1.,0.,0.)) ;
#268=DIRECTION('Vector Direction',(0.,0.,1.)) ;
#275=DIRECTION('Vector Direction',(-1.,0.,0.)) ;
#287=DIRECTION('Axis2P3D Direction',(-1.,0.,0.)) ;
#288=DIRECTION('Axis2P3D XDirection',(0.,-1.,0.)) ;
#292=DIRECTION('Vector Direction',(0.,-1.,0.)) ;
#297=DIRECTION('Vector Direction',(0.,-1.,0.)) ;
#309=DIRECTION('Axis2P3D Direction',(0.,0.,1.)) ;
#310=DIRECTION('Axis2P3D XDirection',(1.,0.,0.)) ;
#321=DIRECTION('Axis2P3D Direction',(0.,0.,1.)) ;
#322=DIRECTION('Axis2P3D XDirection',(1.,0.,0.)) ;
#336=DIRECTION('Axis2P3D Direction',(0.,-1.,0.)) ;
#337=DIRECTION('Axis2P3D XDirection',(1.,0.,0.)) ;
#341=DIRECTION('Vector Direction',(0.,0.,1.)) ;
#350=DIRECTION('Vector Direction',(1.,0.,0.)) ;
#357=DIRECTION('Vector Direction',(0.,0.,1.)) ;
#364=DIRECTION('Vector Direction',(1.,0.,0.)) ;
#376=DIRECTION('Axis2P3D Direction',(1.,0.,0.)) ;
#377=DIRECTION('Axis2P3D XDirection',(0.,1.,0.)) ;
#381=DIRECTION('Vector Direction',(0.,1.,0.)) ;
#388=DIRECTION('Vector Direction',(0.,0.,1.)) ;
#395=DIRECTION('Vector Direction',(0.,1.,0.)) ;
#407=DIRECTION('Axis2P3D Direction',(0.,1.,-0.)) ;
#408=DIRECTION('Axis2P3D XDirection',(-1.,0.,0.)) ;
#412=DIRECTION('Vector Direction',(-1.,0.,0.)) ;
#419=DIRECTION('Vector Direction',(0.,0.,1.)) ;
#426=DIRECTION('Vector Direction',(-1.,0.,0.)) ;
#438=DIRECTION('Axis2P3D Direction',(-1.,0.,0.)) ;
#439=DIRECTION('Axis2P3D XDirection',(0.,-1.,0.)) ;
#443=DIRECTION('Vector Direction',(0.,-1.,0.)) ;
#448=DIRECTION('Vector Direction',(0.,-1.,0.)) ;
#460=DIRECTION('Axis2P3D Direction',(0.,0.,1.)) ;
#461=DIRECTION('Axis2P3D XDirection',(1.,0.,0.)) ;
#472=DIRECTION('Axis2P3D Direction',(0.,0.,1.)) ;
#473=DIRECTION('Axis2P3D XDirection',(1.,0.,0.)) ;
#487=DIRECTION('Axis2P3D Direction',(-1.,4.85060381267E-15,-1.97056515013E-15)) ;
#488=DIRECTION('Axis2P3D XDirection',(-4.85060381267E-15,-1.,-3.75618458856E-29)) ;
#492=DIRECTION('Vector Direction',(-2.84217094304E-15,0.,1.)) ;
#501=DIRECTION('Vector Direction',(0.,-1.,0.)) ;
#508=DIRECTION('Vector Direction',(-2.84217094304E-15,0.,1.)) ;
#515=DIRECTION('Vector Direction',(0.,-1.,0.)) ;
#527=DIRECTION('Axis2P3D Direction',(0.,-1.,0.)) ;
#528=DIRECTION('Axis2P3D XDirection',(1.,0.,0.)) ;
#532=DIRECTION('Vector Direction',(1.,0.,0.)) ;
#539=DIRECTION('Vector Direction',(0.,0.,1.)) ;
#546=DIRECTION('Vector Direction',(1.,0.,0.)) ;
#558=DIRECTION('Axis2P3D Direction',(1.,0.,0.)) ;
#559=DIRECTION('Axis2P3D XDirection',(0.,1.,0.)) ;
#563=DIRECTION('Vector Direction',(0.,1.,0.)) ;
#570=DIRECTION('Vector Direction',(0.,0.,1.)) ;
#577=DIRECTION('Vector Direction',(0.,1.,0.)) ;
#589=DIRECTION('Axis2P3D Direction',(0.,1.,-0.)) ;
#590=DIRECTION('Axis2P3D XDirection',(-1.,0.,0.)) ;
#594=DIRECTION('Vector Direction',(-1.,0.,0.)) ;
#599=DIRECTION('Vector Direction',(-1.,0.,0.)) ;
#611=DIRECTION('Axis2P3D Direction',(0.,0.,1.)) ;
#612=DIRECTION('Axis2P3D XDirection',(1.,0.,0.)) ;
#623=DIRECTION('Axis2P3D Direction',(0.,0.,1.)) ;
#624=DIRECTION('Axis2P3D XDirection',(1.,0.,0.)) ;
#638=DIRECTION('Axis2P3D Direction',(-1.,0.,0.)) ;
#639=DIRECTION('Axis2P3D XDirection',(0.,-1.,0.)) ;
#643=DIRECTION('Vector Direction',(0.,0.,1.)) ;
#652=DIRECTION('Vector Direction',(0.,-1.,0.)) ;
#659=DIRECTION('Vector Direction',(0.,0.,1.)) ;
#666=DIRECTION('Vector Direction',(0.,-1.,0.)) ;
#678=DIRECTION('Axis2P3D Direction',(0.,1.,-0.)) ;
#679=DIRECTION('Axis2P3D XDirection',(-1.,0.,0.)) ;
#683=DIRECTION('Vector Direction',(-1.,0.,0.)) ;
#690=DIRECTION('Vector Direction',(0.,0.,1.)) ;
#697=DIRECTION('Vector Direction',(-1.,0.,0.)) ;
#709=DIRECTION('Axis2P3D Direction',(1.,0.,0.)) ;
#710=DIRECTION('Axis2P3D XDirection',(0.,1.,0.)) ;
#714=DIRECTION('Vector Direction',(0.,1.,0.)) ;
#721=DIRECTION('Vector Direction',(0.,0.,1.)) ;
#728=DIRECTION('Vector Direction',(0.,1.,0.)) ;
#740=DIRECTION('Axis2P3D Direction',(0.,-1.,0.)) ;
#741=DIRECTION('Axis2P3D XDirection',(1.,0.,0.)) ;
#745=DIRECTION('Vector Direction',(1.,0.,0.)) ;
#750=DIRECTION('Vector Direction',(1.,0.,0.)) ;
#762=DIRECTION('Axis2P3D Direction',(0.,0.,1.)) ;
#763=DIRECTION('Axis2P3D XDirection',(1.,0.,0.)) ;
#774=DIRECTION('Axis2P3D Direction',(0.,0.,1.)) ;
#775=DIRECTION('Axis2P3D XDirection',(1.,0.,0.)) ;
#789=DIRECTION('Axis2P3D Direction',(0.,1.,-0.)) ;
#790=DIRECTION('Axis2P3D XDirection',(-1.,0.,0.)) ;
#794=DIRECTION('Vector Direction',(0.,0.,1.)) ;
#803=DIRECTION('Vector Direction',(-1.,0.,0.)) ;
#810=DIRECTION('Vector Direction',(0.,0.,1.)) ;
#817=DIRECTION('Vector Direction',(-1.,0.,0.)) ;
#829=DIRECTION('Axis2P3D Direction',(-1.,6.16297582204E-33,0.)) ;
#830=DIRECTION('Axis2P3D XDirection',(-6.16297582204E-33,-1.,-0.)) ;
#834=DIRECTION('Vector Direction',(0.,-1.,0.)) ;
#841=DIRECTION('Vector Direction',(0.,0.,1.)) ;
#848=DIRECTION('Vector Direction',(0.,-1.,0.)) ;
#860=DIRECTION('Axis2P3D Direction',(0.,-1.,0.)) ;
#861=DIRECTION('Axis2P3D XDirection',(1.,0.,0.)) ;
#865=DIRECTION('Vector Direction',(1.,0.,0.)) ;
#872=DIRECTION('Vector Direction',(0.,0.,1.)) ;
#879=DIRECTION('Vector Direction',(1.,0.,0.)) ;
#891=DIRECTION('Axis2P3D Direction',(1.,-1.23259516441E-32,0.)) ;
#892=DIRECTION('Axis2P3D XDirection',(1.23259516441E-32,1.,0.)) ;
#896=DIRECTION('Vector Direction',(0.,1.,0.)) ;
#901=DIRECTION('Vector Direction',(0.,1.,0.)) ;
#913=DIRECTION('Axis2P3D Direction',(0.,0.,1.)) ;
#914=DIRECTION('Axis2P3D XDirection',(1.,0.,0.)) ;
#925=DIRECTION('Axis2P3D Direction',(0.,0.,1.)) ;
#926=DIRECTION('Axis2P3D XDirection',(1.,0.,0.)) ;
#940=DIRECTION('Axis2P3D Direction',(0.,-1.,0.)) ;
#941=DIRECTION('Axis2P3D XDirection',(1.,0.,0.)) ;
#945=DIRECTION('Vector Direction',(0.,0.,1.)) ;
#954=DIRECTION('Vector Direction',(1.,0.,0.)) ;
#961=DIRECTION('Vector Direction',(0.,0.,1.)) ;
#968=DIRECTION('Vector Direction',(1.,0.,0.)) ;
#980=DIRECTION('Axis2P3D Direction',(1.,0.,0.)) ;
#981=DIRECTION('Axis2P3D XDirection',(0.,1.,0.)) ;
#985=DIRECTION('Vector Direction',(0.,1.,0.)) ;
#992=DIRECTION('Vector Direction',(0.,0.,1.)) ;
#999=DIRECTION('Vector Direction',(0.,1.,0.)) ;
#1011=DIRECTION('Axis2P3D Direction',(0.,1.,-0.)) ;
#1012=DIRECTION('Axis2P3D XDirection',(-1.,0.,0.)) ;
#1016=DIRECTION('Vector Direction',(-1.,0.,0.)) ;
#1023=DIRECTION('Vector Direction',(0.,0.,1.)) ;
#1030=DIRECTION('Vector Direction',(-1.,0.,0.)) ;
#1042=DIRECTION('Axis2P3D Direction',(-1.,0.,0.)) ;
#1043=DIRECTION('Axis2P3D XDirection',(0.,-1.,0.)) ;
#1047=DIRECTION('Vector Direction',(0.,-1.,0.)) ;
#1052=DIRECTION('Vector Direction',(0.,-1.,0.)) ;
#1064=DIRECTION('Axis2P3D Direction',(0.,0.,1.)) ;
#1065=DIRECTION('Axis2P3D XDirection',(1.,0.,0.)) ;
#1076=DIRECTION('Axis2P3D Direction',(0.,0.,1.)) ;
#1077=DIRECTION('Axis2P3D XDirection',(1.,0.,0.)) ;
#1091=DIRECTION('Axis2P3D Direction',(-1.,0.,0.)) ;
#1092=DIRECTION('Axis2P3D XDirection',(0.,-1.,0.)) ;
#1096=DIRECTION('Vector Direction',(0.,0.,1.)) ;
#1105=DIRECTION('Vector Direction',(0.,-1.,0.)) ;
#1112=DIRECTION('Vector Direction',(0.,0.,1.)) ;
#1119=DIRECTION('Vector Direction',(0.,-1.,0.)) ;
#1131=DIRECTION('Axis2P3D Direction',(0.,-1.,0.)) ;
#1132=DIRECTION('Axis2P3D XDirection',(1.,0.,0.)) ;
#1136=DIRECTION('Vector Direction',(1.,0.,0.)) ;
#1143=DIRECTION('Vector Direction',(0.,0.,1.)) ;
#1150=DIRECTION('Vector Direction',(1.,0.,0.)) ;
#1162=DIRECTION('Axis2P3D Direction',(1.,0.,0.)) ;
#1163=DIRECTION('Axis2P3D XDirection',(0.,1.,0.)) ;
#1167=DIRECTION('Vector Direction',(0.,1.,0.)) ;
#1174=DIRECTION('Vector Direction',(0.,0.,1.)) ;
#1181=DIRECTION('Vector Direction',(0.,1.,0.)) ;
#1193=DIRECTION('Axis2P3D Direction',(0.,1.,-0.)) ;
#1194=DIRECTION('Axis2P3D XDirection',(-1.,0.,0.)) ;
#1198=DIRECTION('Vector Direction',(-1.,0.,0.)) ;
#1203=DIRECTION('Vector Direction',(-1.,0.,0.)) ;
#1215=DIRECTION('Axis2P3D Direction',(0.,0.,1.)) ;
#1216=DIRECTION('Axis2P3D XDirection',(1.,0.,0.)) ;
#1227=DIRECTION('Axis2P3D Direction',(0.,0.,1.)) ;
#1228=DIRECTION('Axis2P3D XDirection',(1.,0.,0.)) ;
#1242=DIRECTION('Axis2P3D Direction',(0.,-1.,0.)) ;
#1243=DIRECTION('Axis2P3D XDirection',(1.,0.,0.)) ;
#1247=DIRECTION('Vector Direction',(0.,0.,1.)) ;
#1256=DIRECTION('Vector Direction',(1.,0.,0.)) ;
#1263=DIRECTION('Vector Direction',(0.,0.,1.)) ;
#1270=DIRECTION('Vector Direction',(1.,0.,0.)) ;
#1282=DIRECTION('Axis2P3D Direction',(1.,0.,0.)) ;
#1283=DIRECTION('Axis2P3D XDirection',(0.,1.,0.)) ;
#1287=DIRECTION('Vector Direction',(0.,1.,0.)) ;
#1294=DIRECTION('Vector Direction',(0.,0.,1.)) ;
#1301=DIRECTION('Vector Direction',(0.,1.,0.)) ;
#1313=DIRECTION('Axis2P3D Direction',(0.,1.,-0.)) ;
#1314=DIRECTION('Axis2P3D XDirection',(-1.,0.,0.)) ;
#1318=DIRECTION('Vector Direction',(-1.,0.,0.)) ;
#1325=DIRECTION('Vector Direction',(0.,0.,1.)) ;
#1332=DIRECTION('Vector Direction',(-1.,0.,0.)) ;
#1344=DIRECTION('Axis2P3D Direction',(-1.,0.,0.)) ;
#1345=DIRECTION('Axis2P3D XDirection',(0.,-1.,0.)) ;
#1349=DIRECTION('Vector Direction',(0.,-1.,0.)) ;
#1354=DIRECTION('Vector Direction',(0.,-1.,0.)) ;
#1366=DIRECTION('Axis2P3D Direction',(0.,0.,1.)) ;
#1367=DIRECTION('Axis2P3D XDirection',(1.,0.,0.)) ;
#1378=DIRECTION('Axis2P3D Direction',(0.,0.,1.)) ;
#1379=DIRECTION('Axis2P3D XDirection',(1.,0.,0.)) ;
#1393=DIRECTION('Axis2P3D Direction',(-1.,0.,0.)) ;
#1394=DIRECTION('Axis2P3D XDirection',(0.,-1.,0.)) ;
#1398=DIRECTION('Vector Direction',(0.,0.,1.)) ;
#1407=DIRECTION('Vector Direction',(0.,-1.,0.)) ;
#1414=DIRECTION('Vector Direction',(0.,0.,1.)) ;
#1421=DIRECTION('Vector Direction',(0.,-1.,0.)) ;
#1433=DIRECTION('Axis2P3D Direction',(0.,-1.,0.)) ;
#1434=DIRECTION('Axis2P3D XDirection',(1.,0.,0.)) ;
#1438=DIRECTION('Vector Direction',(1.,0.,0.)) ;
#1445=DIRECTION('Vector Direction',(0.,0.,1.)) ;
#1452=DIRECTION('Vector Direction',(1.,0.,0.)) ;
#1464=DIRECTION('Axis2P3D Direction',(1.,3.94430452611E-31,-0.)) ;
#1465=DIRECTION('Axis2P3D XDirection',(-3.94430452611E-31,1.,0.)) ;
#1469=DIRECTION('Vector Direction',(0.,1.,0.)) ;
#1476=DIRECTION('Vector Direction',(0.,0.,1.)) ;
#1483=DIRECTION('Vector Direction',(0.,1.,0.)) ;
#1495=DIRECTION('Axis2P3D Direction',(0.,1.,-0.)) ;
#1496=DIRECTION('Axis2P3D XDirection',(-1.,0.,0.)) ;
#1500=DIRECTION('Vector Direction',(-1.,0.,0.)) ;
#1505=DIRECTION('Vector Direction',(-1.,0.,0.)) ;
#1517=DIRECTION('Axis2P3D Direction',(0.,0.,1.)) ;
#1518=DIRECTION('Axis2P3D XDirection',(1.,0.,0.)) ;
#1529=DIRECTION('Axis2P3D Direction',(0.,0.,1.)) ;
#1530=DIRECTION('Axis2P3D XDirection',(1.,0.,0.)) ;
#1544=DIRECTION('Axis2P3D Direction',(0.,-1.,0.)) ;
#1545=DIRECTION('Axis2P3D XDirection',(1.,0.,0.)) ;
#1549=DIRECTION('Vector Direction',(0.,0.,1.)) ;
#1558=DIRECTION('Vector Direction',(1.,0.,0.)) ;
#1565=DIRECTION('Vector Direction',(0.,0.,1.)) ;
#1572=DIRECTION('Vector Direction',(1.,0.,0.)) ;
#1584=DIRECTION('Axis2P3D Direction',(1.,0.,0.)) ;
#1585=DIRECTION('Axis2P3D XDirection',(0.,1.,0.)) ;
#1589=DIRECTION('Vector Direction',(0.,1.,0.)) ;
#1596=DIRECTION('Vector Direction',(0.,0.,1.)) ;
#1603=DIRECTION('Vector Direction',(0.,1.,0.)) ;
#1615=DIRECTION('Axis2P3D Direction',(0.,1.,-0.)) ;
#1616=DIRECTION('Axis2P3D XDirection',(-1.,0.,0.)) ;
#1620=DIRECTION('Vector Direction',(-1.,0.,0.)) ;
#1627=DIRECTION('Vector Direction',(0.,0.,1.)) ;
#1634=DIRECTION('Vector Direction',(-1.,0.,0.)) ;
#1646=DIRECTION('Axis2P3D Direction',(-1.,0.,0.)) ;
#1647=DIRECTION('Axis2P3D XDirection',(0.,-1.,0.)) ;
#1651=DIRECTION('Vector Direction',(0.,-1.,0.)) ;
#1656=DIRECTION('Vector Direction',(0.,-1.,0.)) ;
#1668=DIRECTION('Axis2P3D Direction',(0.,0.,1.)) ;
#1669=DIRECTION('Axis2P3D XDirection',(1.,0.,0.)) ;
#1680=DIRECTION('Axis2P3D Direction',(0.,0.,1.)) ;
#1681=DIRECTION('Axis2P3D XDirection',(1.,0.,0.)) ;
#1695=DIRECTION('Axis2P3D Direction',(0.,-1.,0.)) ;
#1696=DIRECTION('Axis2P3D XDirection',(1.,0.,0.)) ;
#1700=DIRECTION('Vector Direction',(0.,0.,1.)) ;
#1709=DIRECTION('Vector Direction',(1.,0.,0.)) ;
#1716=DIRECTION('Vector Direction',(0.,0.,1.)) ;
#1723=DIRECTION('Vector Direction',(1.,0.,0.)) ;
#1735=DIRECTION('Axis2P3D Direction',(1.,0.,0.)) ;
#1736=DIRECTION('Axis2P3D XDirection',(0.,1.,0.)) ;
#1740=DIRECTION('Vector Direction',(0.,1.,0.)) ;
#1747=DIRECTION('Vector Direction',(0.,0.,1.)) ;
#1754=DIRECTION('Vector Direction',(0.,1.,0.)) ;
#1766=DIRECTION('Axis2P3D Direction',(0.,1.,-0.)) ;
#1767=DIRECTION('Axis2P3D XDirection',(-1.,0.,0.)) ;
#1771=DIRECTION('Vector Direction',(-1.,0.,0.)) ;
#1778=DIRECTION('Vector Direction',(0.,0.,1.)) ;
#1785=DIRECTION('Vector Direction',(-1.,0.,0.)) ;
#1797=DIRECTION('Axis2P3D Direction',(-1.,0.,0.)) ;
#1798=DIRECTION('Axis2P3D XDirection',(0.,-1.,0.)) ;
#1802=DIRECTION('Vector Direction',(0.,-1.,0.)) ;
#1807=DIRECTION('Vector Direction',(0.,-1.,0.)) ;
#1819=DIRECTION('Axis2P3D Direction',(0.,0.,1.)) ;
#1820=DIRECTION('Axis2P3D XDirection',(1.,0.,0.)) ;
#1831=DIRECTION('Axis2P3D Direction',(0.,0.,1.)) ;
#1832=DIRECTION('Axis2P3D XDirection',(1.,0.,0.)) ;
#1846=DIRECTION('Axis2P3D Direction',(1.,-0.,0.)) ;
#1847=DIRECTION('Axis2P3D XDirection',(0.,1.,-0.)) ;
#1851=DIRECTION('Vector Direction',(0.,1.,0.)) ;
#1860=DIRECTION('Vector Direction',(0.,0.,1.)) ;
#1867=DIRECTION('Vector Direction',(0.,1.,0.)) ;
#1874=DIRECTION('Vector Direction',(0.,0.,1.)) ;
#1886=DIRECTION('Axis2P3D Direction',(-0.,1.,0.)) ;
#1887=DIRECTION('Axis2P3D XDirection',(-1.,-0.,0.)) ;
#1891=DIRECTION('Vector Direction',(-1.,0.,0.)) ;
#1898=DIRECTION('Vector Direction',(0.,0.,1.)) ;
#1905=DIRECTION('Vector Direction',(-1.,0.,0.)) ;
#1917=DIRECTION('Axis2P3D Direction',(-1.,0.,0.)) ;
#1918=DIRECTION('Axis2P3D XDirection',(0.,-1.,0.)) ;
#1922=DIRECTION('Vector Direction',(0.,-1.,0.)) ;
#1929=DIRECTION('Vector Direction',(0.,0.,1.)) ;
#1936=DIRECTION('Vector Direction',(0.,-1.,0.)) ;
#1948=DIRECTION('Axis2P3D Direction',(0.,-1.,0.)) ;
#1949=DIRECTION('Axis2P3D XDirection',(1.,0.,0.)) ;
#1953=DIRECTION('Vector Direction',(1.,0.,0.)) ;
#1958=DIRECTION('Vector Direction',(1.,0.,0.)) ;
#1970=DIRECTION('Axis2P3D Direction',(0.,-0.,-1.)) ;
#1971=DIRECTION('Axis2P3D XDirection',(1.,0.,-0.)) ;
#1982=DIRECTION('Axis2P3D Direction',(0.,-0.,-1.)) ;
#1983=DIRECTION('Axis2P3D XDirection',(1.,0.,-0.)) ;
#1997=DIRECTION('Axis2P3D Direction',(0.,-1.,0.)) ;
#1998=DIRECTION('Axis2P3D XDirection',(1.,0.,0.)) ;
#2002=DIRECTION('Vector Direction',(1.,0.,0.)) ;
#2011=DIRECTION('Vector Direction',(0.,0.,1.)) ;
#2018=DIRECTION('Vector Direction',(1.,0.,0.)) ;
#2025=DIRECTION('Vector Direction',(0.,0.,1.)) ;
#2037=DIRECTION('Axis2P3D Direction',(-1.,0.,0.)) ;
#2038=DIRECTION('Axis2P3D XDirection',(0.,-1.,0.)) ;
#2042=DIRECTION('Vector Direction',(0.,-1.,0.)) ;
#2049=DIRECTION('Vector Direction',(0.,0.,1.)) ;
#2056=DIRECTION('Vector Direction',(0.,-1.,0.)) ;
#2068=DIRECTION('Axis2P3D Direction',(-0.,1.,0.)) ;
#2069=DIRECTION('Axis2P3D XDirection',(-1.,-0.,0.)) ;
#2073=DIRECTION('Vector Direction',(-1.,0.,0.)) ;
#2080=DIRECTION('Vector Direction',(0.,0.,1.)) ;
#2087=DIRECTION('Vector Direction',(-1.,0.,0.)) ;
#2099=DIRECTION('Axis2P3D Direction',(1.,-0.,0.)) ;
#2100=DIRECTION('Axis2P3D XDirection',(0.,1.,-0.)) ;
#2104=DIRECTION('Vector Direction',(0.,1.,0.)) ;
#2109=DIRECTION('Vector Direction',(0.,1.,0.)) ;
#2121=DIRECTION('Axis2P3D Direction',(0.,-0.,-1.)) ;
#2122=DIRECTION('Axis2P3D XDirection',(1.,0.,-0.)) ;
#2133=DIRECTION('Axis2P3D Direction',(0.,-0.,-1.)) ;
#2134=DIRECTION('Axis2P3D XDirection',(1.,0.,-0.)) ;
#8=PRODUCT_RELATED_PRODUCT_CATEGORY('part',$,(#5)) ;
#7=PRODUCT_CATEGORY('part','specification') ;
#29=STYLED_ITEM(' ',(#28),#21) ;
#182=STYLED_ITEM(' ',(#28),#181) ;
#333=STYLED_ITEM(' ',(#28),#332) ;
#484=STYLED_ITEM(' ',(#28),#483) ;
#635=STYLED_ITEM(' ',(#28),#634) ;
#786=STYLED_ITEM(' ',(#28),#785) ;
#937=STYLED_ITEM(' ',(#28),#936) ;
#1088=STYLED_ITEM(' ',(#28),#1087) ;
#1239=STYLED_ITEM(' ',(#28),#1238) ;
#1390=STYLED_ITEM(' ',(#28),#1389) ;
#1541=STYLED_ITEM(' ',(#28),#1540) ;
#1692=STYLED_ITEM(' ',(#28),#1691) ;
#1843=STYLED_ITEM(' ',(#28),#1842) ;
#1994=STYLED_ITEM(' ',(#28),#1993) ;
#28=PRESENTATION_STYLE_ASSIGNMENT((#27)) ;
#27=SURFACE_STYLE_USAGE(.BOTH.,#26) ;
#26=SURFACE_SIDE_STYLE(' ',(#25)) ;
#25=SURFACE_STYLE_FILL_AREA(#24) ;
#24=FILL_AREA_STYLE(' ',(#23)) ;
#23=FILL_AREA_STYLE_COLOUR(' ',#22) ;
#38=VECTOR('Line Direction',#37,1.) ;
#47=VECTOR('Line Direction',#46,1.) ;
#54=VECTOR('Line Direction',#53,1.) ;
#61=VECTOR('Line Direction',#60,1.) ;
#78=VECTOR('Line Direction',#77,1.) ;
#87=VECTOR('Line Direction',#86,1.) ;
#92=VECTOR('Line Direction',#91,1.) ;
#109=VECTOR('Line Direction',#108,1.) ;
#116=VECTOR('Line Direction',#115,1.) ;
#133=VECTOR('Line Direction',#132,1.) ;
#140=VECTOR('Line Direction',#139,1.) ;
#157=VECTOR('Line Direction',#156,1.) ;
#191=VECTOR('Line Direction',#190,1.) ;
#200=VECTOR('Line Direction',#199,1.) ;
#207=VECTOR('Line Direction',#206,1.) ;
#214=VECTOR('Line Direction',#213,1.) ;
#231=VECTOR('Line Direction',#230,1.) ;
#238=VECTOR('Line Direction',#237,1.) ;
#245=VECTOR('Line Direction',#244,1.) ;
#262=VECTOR('Line Direction',#261,1.) ;
#269=VECTOR('Line Direction',#268,1.) ;
#276=VECTOR('Line Direction',#275,1.) ;
#293=VECTOR('Line Direction',#292,1.) ;
#298=VECTOR('Line Direction',#297,1.) ;
#342=VECTOR('Line Direction',#341,1.) ;
#351=VECTOR('Line Direction',#350,1.) ;
#358=VECTOR('Line Direction',#357,1.) ;
#365=VECTOR('Line Direction',#364,1.) ;
#382=VECTOR('Line Direction',#381,1.) ;
#389=VECTOR('Line Direction',#388,1.) ;
#396=VECTOR('Line Direction',#395,1.) ;
#413=VECTOR('Line Direction',#412,1.) ;
#420=VECTOR('Line Direction',#419,1.) ;
#427=VECTOR('Line Direction',#426,1.) ;
#444=VECTOR('Line Direction',#443,1.) ;
#449=VECTOR('Line Direction',#448,1.) ;
#493=VECTOR('Line Direction',#492,1.) ;
#502=VECTOR('Line Direction',#501,1.) ;
#509=VECTOR('Line Direction',#508,1.) ;
#516=VECTOR('Line Direction',#515,1.) ;
#533=VECTOR('Line Direction',#532,1.) ;
#540=VECTOR('Line Direction',#539,1.) ;
#547=VECTOR('Line Direction',#546,1.) ;
#564=VECTOR('Line Direction',#563,1.) ;
#571=VECTOR('Line Direction',#570,1.) ;
#578=VECTOR('Line Direction',#577,1.) ;
#595=VECTOR('Line Direction',#594,1.) ;
#600=VECTOR('Line Direction',#599,1.) ;
#644=VECTOR('Line Direction',#643,1.) ;
#653=VECTOR('Line Direction',#652,1.) ;
#660=VECTOR('Line Direction',#659,1.) ;
#667=VECTOR('Line Direction',#666,1.) ;
#684=VECTOR('Line Direction',#683,1.) ;
#691=VECTOR('Line Direction',#690,1.) ;
#698=VECTOR('Line Direction',#697,1.) ;
#715=VECTOR('Line Direction',#714,1.) ;
#722=VECTOR('Line Direction',#721,1.) ;
#729=VECTOR('Line Direction',#728,1.) ;
#746=VECTOR('Line Direction',#745,1.) ;
#751=VECTOR('Line Direction',#750,1.) ;
#795=VECTOR('Line Direction',#794,1.) ;
#804=VECTOR('Line Direction',#803,1.) ;
#811=VECTOR('Line Direction',#810,1.) ;
#818=VECTOR('Line Direction',#817,1.) ;
#835=VECTOR('Line Direction',#834,1.) ;
#842=VECTOR('Line Direction',#841,1.) ;
#849=VECTOR('Line Direction',#848,1.) ;
#866=VECTOR('Line Direction',#865,1.) ;
#873=VECTOR('Line Direction',#872,1.) ;
#880=VECTOR('Line Direction',#879,1.) ;
#897=VECTOR('Line Direction',#896,1.) ;
#902=VECTOR('Line Direction',#901,1.) ;
#946=VECTOR('Line Direction',#945,1.) ;
#955=VECTOR('Line Direction',#954,1.) ;
#962=VECTOR('Line Direction',#961,1.) ;
#969=VECTOR('Line Direction',#968,1.) ;
#986=VECTOR('Line Direction',#985,1.) ;
#993=VECTOR('Line Direction',#992,1.) ;
#1000=VECTOR('Line Direction',#999,1.) ;
#1017=VECTOR('Line Direction',#1016,1.) ;
#1024=VECTOR('Line Direction',#1023,1.) ;
#1031=VECTOR('Line Direction',#1030,1.) ;
#1048=VECTOR('Line Direction',#1047,1.) ;
#1053=VECTOR('Line Direction',#1052,1.) ;
#1097=VECTOR('Line Direction',#1096,1.) ;
#1106=VECTOR('Line Direction',#1105,1.) ;
#1113=VECTOR('Line Direction',#1112,1.) ;
#1120=VECTOR('Line Direction',#1119,1.) ;
#1137=VECTOR('Line Direction',#1136,1.) ;
#1144=VECTOR('Line Direction',#1143,1.) ;
#1151=VECTOR('Line Direction',#1150,1.) ;
#1168=VECTOR('Line Direction',#1167,1.) ;
#1175=VECTOR('Line Direction',#1174,1.) ;
#1182=VECTOR('Line Direction',#1181,1.) ;
#1199=VECTOR('Line Direction',#1198,1.) ;
#1204=VECTOR('Line Direction',#1203,1.) ;
#1248=VECTOR('Line Direction',#1247,1.) ;
#1257=VECTOR('Line Direction',#1256,1.) ;
#1264=VECTOR('Line Direction',#1263,1.) ;
#1271=VECTOR('Line Direction',#1270,1.) ;
#1288=VECTOR('Line Direction',#1287,1.) ;
#1295=VECTOR('Line Direction',#1294,1.) ;
#1302=VECTOR('Line Direction',#1301,1.) ;
#1319=VECTOR('Line Direction',#1318,1.) ;
#1326=VECTOR('Line Direction',#1325,1.) ;
#1333=VECTOR('Line Direction',#1332,1.) ;
#1350=VECTOR('Line Direction',#1349,1.) ;
#1355=VECTOR('Line Direction',#1354,1.) ;
#1399=VECTOR('Line Direction',#1398,1.) ;
#1408=VECTOR('Line Direction',#1407,1.) ;
#1415=VECTOR('Line Direction',#1414,1.) ;
#1422=VECTOR('Line Direction',#1421,1.) ;
#1439=VECTOR('Line Direction',#1438,1.) ;
#1446=VECTOR('Line Direction',#1445,1.) ;
#1453=VECTOR('Line Direction',#1452,1.) ;
#1470=VECTOR('Line Direction',#1469,1.) ;
#1477=VECTOR('Line Direction',#1476,1.) ;
#1484=VECTOR('Line Direction',#1483,1.) ;
#1501=VECTOR('Line Direction',#1500,1.) ;
#1506=VECTOR('Line Direction',#1505,1.) ;
#1550=VECTOR('Line Direction',#1549,1.) ;
#1559=VECTOR('Line Direction',#1558,1.) ;
#1566=VECTOR('Line Direction',#1565,1.) ;
#1573=VECTOR('Line Direction',#1572,1.) ;
#1590=VECTOR('Line Direction',#1589,1.) ;
#1597=VECTOR('Line Direction',#1596,1.) ;
#1604=VECTOR('Line Direction',#1603,1.) ;
#1621=VECTOR('Line Direction',#1620,1.) ;
#1628=VECTOR('Line Direction',#1627,1.) ;
#1635=VECTOR('Line Direction',#1634,1.) ;
#1652=VECTOR('Line Direction',#1651,1.) ;
#1657=VECTOR('Line Direction',#1656,1.) ;
#1701=VECTOR('Line Direction',#1700,1.) ;
#1710=VECTOR('Line Direction',#1709,1.) ;
#1717=VECTOR('Line Direction',#1716,1.) ;
#1724=VECTOR('Line Direction',#1723,1.) ;
#1741=VECTOR('Line Direction',#1740,1.) ;
#1748=VECTOR('Line Direction',#1747,1.) ;
#1755=VECTOR('Line Direction',#1754,1.) ;
#1772=VECTOR('Line Direction',#1771,1.) ;
#1779=VECTOR('Line Direction',#1778,1.) ;
#1786=VECTOR('Line Direction',#1785,1.) ;
#1803=VECTOR('Line Direction',#1802,1.) ;
#1808=VECTOR('Line Direction',#1807,1.) ;
#1852=VECTOR('Line Direction',#1851,1.) ;
#1861=VECTOR('Line Direction',#1860,1.) ;
#1868=VECTOR('Line Direction',#1867,1.) ;
#1875=VECTOR('Line Direction',#1874,1.) ;
#1892=VECTOR('Line Direction',#1891,1.) ;
#1899=VECTOR('Line Direction',#1898,1.) ;
#1906=VECTOR('Line Direction',#1905,1.) ;
#1923=VECTOR('Line Direction',#1922,1.) ;
#1930=VECTOR('Line Direction',#1929,1.) ;
#1937=VECTOR('Line Direction',#1936,1.) ;
#1954=VECTOR('Line Direction',#1953,1.) ;
#1959=VECTOR('Line Direction',#1958,1.) ;
#2003=VECTOR('Line Direction',#2002,1.) ;
#2012=VECTOR('Line Direction',#2011,1.) ;
#2019=VECTOR('Line Direction',#2018,1.) ;
#2026=VECTOR('Line Direction',#2025,1.) ;
#2043=VECTOR('Line Direction',#2042,1.) ;
#2050=VECTOR('Line Direction',#2049,1.) ;
#2057=VECTOR('Line Direction',#2056,1.) ;
#2074=VECTOR('Line Direction',#2073,1.) ;
#2081=VECTOR('Line Direction',#2080,1.) ;
#2088=VECTOR('Line Direction',#2087,1.) ;
#2105=VECTOR('Line Direction',#2104,1.) ;
#2110=VECTOR('Line Direction',#2109,1.) ;
#15=UNCERTAINTY_MEASURE_WITH_UNIT(LENGTH_MEASURE(0.005),#12,'distance_accuracy_value','CONFUSED CURVE UNCERTAINTY') ;
#180=SHAPE_REPRESENTATION_RELATIONSHIP(' ',' ',#19,#179) ;
#65=ORIENTED_EDGE('',*,*,#44,.T.) ;
#66=ORIENTED_EDGE('',*,*,#51,.F.) ;
#67=ORIENTED_EDGE('',*,*,#58,.F.) ;
#68=ORIENTED_EDGE('',*,*,#63,.T.) ;
#96=ORIENTED_EDGE('',*,*,#84,.F.) ;
#97=ORIENTED_EDGE('',*,*,#89,.F.) ;
#98=ORIENTED_EDGE('',*,*,#51,.T.) ;
#99=ORIENTED_EDGE('',*,*,#94,.F.) ;
#120=ORIENTED_EDGE('',*,*,#113,.T.) ;
#121=ORIENTED_EDGE('',*,*,#118,.T.) ;
#122=ORIENTED_EDGE('',*,*,#94,.T.) ;
#123=ORIENTED_EDGE('',*,*,#44,.F.) ;
#144=ORIENTED_EDGE('',*,*,#58,.T.) ;
#145=ORIENTED_EDGE('',*,*,#89,.T.) ;
#146=ORIENTED_EDGE('',*,*,#137,.T.) ;
#147=ORIENTED_EDGE('',*,*,#142,.T.) ;
#161=ORIENTED_EDGE('',*,*,#63,.F.) ;
#162=ORIENTED_EDGE('',*,*,#142,.F.) ;
#163=ORIENTED_EDGE('',*,*,#159,.T.) ;
#164=ORIENTED_EDGE('',*,*,#113,.F.) ;
#173=ORIENTED_EDGE('',*,*,#159,.F.) ;
#174=ORIENTED_EDGE('',*,*,#137,.F.) ;
#175=ORIENTED_EDGE('',*,*,#84,.T.) ;
#176=ORIENTED_EDGE('',*,*,#118,.F.) ;
#218=ORIENTED_EDGE('',*,*,#197,.F.) ;
#219=ORIENTED_EDGE('',*,*,#204,.T.) ;
#220=ORIENTED_EDGE('',*,*,#211,.T.) ;
#221=ORIENTED_EDGE('',*,*,#216,.F.) ;
#249=ORIENTED_EDGE('',*,*,#211,.F.) ;
#250=ORIENTED_EDGE('',*,*,#235,.T.) ;
#251=ORIENTED_EDGE('',*,*,#242,.T.) ;
#252=ORIENTED_EDGE('',*,*,#247,.F.) ;
#280=ORIENTED_EDGE('',*,*,#242,.F.) ;
#281=ORIENTED_EDGE('',*,*,#266,.T.) ;
#282=ORIENTED_EDGE('',*,*,#273,.T.) ;
#283=ORIENTED_EDGE('',*,*,#278,.F.) ;
#302=ORIENTED_EDGE('',*,*,#273,.F.) ;
#303=ORIENTED_EDGE('',*,*,#295,.T.) ;
#304=ORIENTED_EDGE('',*,*,#197,.T.) ;
#305=ORIENTED_EDGE('',*,*,#300,.F.) ;
#314=ORIENTED_EDGE('',*,*,#295,.F.) ;
#315=ORIENTED_EDGE('',*,*,#266,.F.) ;
#316=ORIENTED_EDGE('',*,*,#235,.F.) ;
#317=ORIENTED_EDGE('',*,*,#204,.F.) ;
#326=ORIENTED_EDGE('',*,*,#216,.T.) ;
#327=ORIENTED_EDGE('',*,*,#247,.T.) ;
#328=ORIENTED_EDGE('',*,*,#278,.T.) ;
#329=ORIENTED_EDGE('',*,*,#300,.T.) ;
#369=ORIENTED_EDGE('',*,*,#348,.F.) ;
#370=ORIENTED_EDGE('',*,*,#355,.T.) ;
#371=ORIENTED_EDGE('',*,*,#362,.T.) ;
#372=ORIENTED_EDGE('',*,*,#367,.F.) ;
#400=ORIENTED_EDGE('',*,*,#362,.F.) ;
#401=ORIENTED_EDGE('',*,*,#386,.T.) ;
#402=ORIENTED_EDGE('',*,*,#393,.T.) ;
#403=ORIENTED_EDGE('',*,*,#398,.F.) ;
#431=ORIENTED_EDGE('',*,*,#393,.F.) ;
#432=ORIENTED_EDGE('',*,*,#417,.T.) ;
#433=ORIENTED_EDGE('',*,*,#424,.T.) ;
#434=ORIENTED_EDGE('',*,*,#429,.F.) ;
#453=ORIENTED_EDGE('',*,*,#424,.F.) ;
#454=ORIENTED_EDGE('',*,*,#446,.T.) ;
#455=ORIENTED_EDGE('',*,*,#348,.T.) ;
#456=ORIENTED_EDGE('',*,*,#451,.F.) ;
#465=ORIENTED_EDGE('',*,*,#446,.F.) ;
#466=ORIENTED_EDGE('',*,*,#417,.F.) ;
#467=ORIENTED_EDGE('',*,*,#386,.F.) ;
#468=ORIENTED_EDGE('',*,*,#355,.F.) ;
#477=ORIENTED_EDGE('',*,*,#367,.T.) ;
#478=ORIENTED_EDGE('',*,*,#398,.T.) ;
#479=ORIENTED_EDGE('',*,*,#429,.T.) ;
#480=ORIENTED_EDGE('',*,*,#451,.T.) ;
#520=ORIENTED_EDGE('',*,*,#499,.F.) ;
#521=ORIENTED_EDGE('',*,*,#506,.T.) ;
#522=ORIENTED_EDGE('',*,*,#513,.T.) ;
#523=ORIENTED_EDGE('',*,*,#518,.F.) ;
#551=ORIENTED_EDGE('',*,*,#513,.F.) ;
#552=ORIENTED_EDGE('',*,*,#537,.T.) ;
#553=ORIENTED_EDGE('',*,*,#544,.T.) ;
#554=ORIENTED_EDGE('',*,*,#549,.F.) ;
#582=ORIENTED_EDGE('',*,*,#544,.F.) ;
#583=ORIENTED_EDGE('',*,*,#568,.T.) ;
#584=ORIENTED_EDGE('',*,*,#575,.T.) ;
#585=ORIENTED_EDGE('',*,*,#580,.F.) ;
#604=ORIENTED_EDGE('',*,*,#575,.F.) ;
#605=ORIENTED_EDGE('',*,*,#597,.T.) ;
#606=ORIENTED_EDGE('',*,*,#499,.T.) ;
#607=ORIENTED_EDGE('',*,*,#602,.F.) ;
#616=ORIENTED_EDGE('',*,*,#597,.F.) ;
#617=ORIENTED_EDGE('',*,*,#568,.F.) ;
#618=ORIENTED_EDGE('',*,*,#537,.F.) ;
#619=ORIENTED_EDGE('',*,*,#506,.F.) ;
#628=ORIENTED_EDGE('',*,*,#518,.T.) ;
#629=ORIENTED_EDGE('',*,*,#549,.T.) ;
#630=ORIENTED_EDGE('',*,*,#580,.T.) ;
#631=ORIENTED_EDGE('',*,*,#602,.T.) ;
#671=ORIENTED_EDGE('',*,*,#650,.F.) ;
#672=ORIENTED_EDGE('',*,*,#657,.T.) ;
#673=ORIENTED_EDGE('',*,*,#664,.T.) ;
#674=ORIENTED_EDGE('',*,*,#669,.F.) ;
#702=ORIENTED_EDGE('',*,*,#664,.F.) ;
#703=ORIENTED_EDGE('',*,*,#688,.T.) ;
#704=ORIENTED_EDGE('',*,*,#695,.T.) ;
#705=ORIENTED_EDGE('',*,*,#700,.F.) ;
#733=ORIENTED_EDGE('',*,*,#695,.F.) ;
#734=ORIENTED_EDGE('',*,*,#719,.T.) ;
#735=ORIENTED_EDGE('',*,*,#726,.T.) ;
#736=ORIENTED_EDGE('',*,*,#731,.F.) ;
#755=ORIENTED_EDGE('',*,*,#726,.F.) ;
#756=ORIENTED_EDGE('',*,*,#748,.T.) ;
#757=ORIENTED_EDGE('',*,*,#650,.T.) ;
#758=ORIENTED_EDGE('',*,*,#753,.F.) ;
#767=ORIENTED_EDGE('',*,*,#748,.F.) ;
#768=ORIENTED_EDGE('',*,*,#719,.F.) ;
#769=ORIENTED_EDGE('',*,*,#688,.F.) ;
#770=ORIENTED_EDGE('',*,*,#657,.F.) ;
#779=ORIENTED_EDGE('',*,*,#669,.T.) ;
#780=ORIENTED_EDGE('',*,*,#700,.T.) ;
#781=ORIENTED_EDGE('',*,*,#731,.T.) ;
#782=ORIENTED_EDGE('',*,*,#753,.T.) ;
#822=ORIENTED_EDGE('',*,*,#801,.F.) ;
#823=ORIENTED_EDGE('',*,*,#808,.T.) ;
#824=ORIENTED_EDGE('',*,*,#815,.T.) ;
#825=ORIENTED_EDGE('',*,*,#820,.F.) ;
#853=ORIENTED_EDGE('',*,*,#815,.F.) ;
#854=ORIENTED_EDGE('',*,*,#839,.T.) ;
#855=ORIENTED_EDGE('',*,*,#846,.T.) ;
#856=ORIENTED_EDGE('',*,*,#851,.F.) ;
#884=ORIENTED_EDGE('',*,*,#846,.F.) ;
#885=ORIENTED_EDGE('',*,*,#870,.T.) ;
#886=ORIENTED_EDGE('',*,*,#877,.T.) ;
#887=ORIENTED_EDGE('',*,*,#882,.F.) ;
#906=ORIENTED_EDGE('',*,*,#877,.F.) ;
#907=ORIENTED_EDGE('',*,*,#899,.T.) ;
#908=ORIENTED_EDGE('',*,*,#801,.T.) ;
#909=ORIENTED_EDGE('',*,*,#904,.F.) ;
#918=ORIENTED_EDGE('',*,*,#899,.F.) ;
#919=ORIENTED_EDGE('',*,*,#870,.F.) ;
#920=ORIENTED_EDGE('',*,*,#839,.F.) ;
#921=ORIENTED_EDGE('',*,*,#808,.F.) ;
#930=ORIENTED_EDGE('',*,*,#820,.T.) ;
#931=ORIENTED_EDGE('',*,*,#851,.T.) ;
#932=ORIENTED_EDGE('',*,*,#882,.T.) ;
#933=ORIENTED_EDGE('',*,*,#904,.T.) ;
#973=ORIENTED_EDGE('',*,*,#952,.F.) ;
#974=ORIENTED_EDGE('',*,*,#959,.T.) ;
#975=ORIENTED_EDGE('',*,*,#966,.T.) ;
#976=ORIENTED_EDGE('',*,*,#971,.F.) ;
#1004=ORIENTED_EDGE('',*,*,#966,.F.) ;
#1005=ORIENTED_EDGE('',*,*,#990,.T.) ;
#1006=ORIENTED_EDGE('',*,*,#997,.T.) ;
#1007=ORIENTED_EDGE('',*,*,#1002,.F.) ;
#1035=ORIENTED_EDGE('',*,*,#997,.F.) ;
#1036=ORIENTED_EDGE('',*,*,#1021,.T.) ;
#1037=ORIENTED_EDGE('',*,*,#1028,.T.) ;
#1038=ORIENTED_EDGE('',*,*,#1033,.F.) ;
#1057=ORIENTED_EDGE('',*,*,#1028,.F.) ;
#1058=ORIENTED_EDGE('',*,*,#1050,.T.) ;
#1059=ORIENTED_EDGE('',*,*,#952,.T.) ;
#1060=ORIENTED_EDGE('',*,*,#1055,.F.) ;
#1069=ORIENTED_EDGE('',*,*,#1050,.F.) ;
#1070=ORIENTED_EDGE('',*,*,#1021,.F.) ;
#1071=ORIENTED_EDGE('',*,*,#990,.F.) ;
#1072=ORIENTED_EDGE('',*,*,#959,.F.) ;
#1081=ORIENTED_EDGE('',*,*,#971,.T.) ;
#1082=ORIENTED_EDGE('',*,*,#1002,.T.) ;
#1083=ORIENTED_EDGE('',*,*,#1033,.T.) ;
#1084=ORIENTED_EDGE('',*,*,#1055,.T.) ;
#1124=ORIENTED_EDGE('',*,*,#1103,.F.) ;
#1125=ORIENTED_EDGE('',*,*,#1110,.T.) ;
#1126=ORIENTED_EDGE('',*,*,#1117,.T.) ;
#1127=ORIENTED_EDGE('',*,*,#1122,.F.) ;
#1155=ORIENTED_EDGE('',*,*,#1117,.F.) ;
#1156=ORIENTED_EDGE('',*,*,#1141,.T.) ;
#1157=ORIENTED_EDGE('',*,*,#1148,.T.) ;
#1158=ORIENTED_EDGE('',*,*,#1153,.F.) ;
#1186=ORIENTED_EDGE('',*,*,#1148,.F.) ;
#1187=ORIENTED_EDGE('',*,*,#1172,.T.) ;
#1188=ORIENTED_EDGE('',*,*,#1179,.T.) ;
#1189=ORIENTED_EDGE('',*,*,#1184,.F.) ;
#1208=ORIENTED_EDGE('',*,*,#1179,.F.) ;
#1209=ORIENTED_EDGE('',*,*,#1201,.T.) ;
#1210=ORIENTED_EDGE('',*,*,#1103,.T.) ;
#1211=ORIENTED_EDGE('',*,*,#1206,.F.) ;
#1220=ORIENTED_EDGE('',*,*,#1201,.F.) ;
#1221=ORIENTED_EDGE('',*,*,#1172,.F.) ;
#1222=ORIENTED_EDGE('',*,*,#1141,.F.) ;
#1223=ORIENTED_EDGE('',*,*,#1110,.F.) ;
#1232=ORIENTED_EDGE('',*,*,#1122,.T.) ;
#1233=ORIENTED_EDGE('',*,*,#1153,.T.) ;
#1234=ORIENTED_EDGE('',*,*,#1184,.T.) ;
#1235=ORIENTED_EDGE('',*,*,#1206,.T.) ;
#1275=ORIENTED_EDGE('',*,*,#1254,.F.) ;
#1276=ORIENTED_EDGE('',*,*,#1261,.T.) ;
#1277=ORIENTED_EDGE('',*,*,#1268,.T.) ;
#1278=ORIENTED_EDGE('',*,*,#1273,.F.) ;
#1306=ORIENTED_EDGE('',*,*,#1268,.F.) ;
#1307=ORIENTED_EDGE('',*,*,#1292,.T.) ;
#1308=ORIENTED_EDGE('',*,*,#1299,.T.) ;
#1309=ORIENTED_EDGE('',*,*,#1304,.F.) ;
#1337=ORIENTED_EDGE('',*,*,#1299,.F.) ;
#1338=ORIENTED_EDGE('',*,*,#1323,.T.) ;
#1339=ORIENTED_EDGE('',*,*,#1330,.T.) ;
#1340=ORIENTED_EDGE('',*,*,#1335,.F.) ;
#1359=ORIENTED_EDGE('',*,*,#1330,.F.) ;
#1360=ORIENTED_EDGE('',*,*,#1352,.T.) ;
#1361=ORIENTED_EDGE('',*,*,#1254,.T.) ;
#1362=ORIENTED_EDGE('',*,*,#1357,.F.) ;
#1371=ORIENTED_EDGE('',*,*,#1352,.F.) ;
#1372=ORIENTED_EDGE('',*,*,#1323,.F.) ;
#1373=ORIENTED_EDGE('',*,*,#1292,.F.) ;
#1374=ORIENTED_EDGE('',*,*,#1261,.F.) ;
#1383=ORIENTED_EDGE('',*,*,#1273,.T.) ;
#1384=ORIENTED_EDGE('',*,*,#1304,.T.) ;
#1385=ORIENTED_EDGE('',*,*,#1335,.T.) ;
#1386=ORIENTED_EDGE('',*,*,#1357,.T.) ;
#1426=ORIENTED_EDGE('',*,*,#1405,.F.) ;
#1427=ORIENTED_EDGE('',*,*,#1412,.T.) ;
#1428=ORIENTED_EDGE('',*,*,#1419,.T.) ;
#1429=ORIENTED_EDGE('',*,*,#1424,.F.) ;
#1457=ORIENTED_EDGE('',*,*,#1419,.F.) ;
#1458=ORIENTED_EDGE('',*,*,#1443,.T.) ;
#1459=ORIENTED_EDGE('',*,*,#1450,.T.) ;
#1460=ORIENTED_EDGE('',*,*,#1455,.F.) ;
#1488=ORIENTED_EDGE('',*,*,#1450,.F.) ;
#1489=ORIENTED_EDGE('',*,*,#1474,.T.) ;
#1490=ORIENTED_EDGE('',*,*,#1481,.T.) ;
#1491=ORIENTED_EDGE('',*,*,#1486,.F.) ;
#1510=ORIENTED_EDGE('',*,*,#1481,.F.) ;
#1511=ORIENTED_EDGE('',*,*,#1503,.T.) ;
#1512=ORIENTED_EDGE('',*,*,#1405,.T.) ;
#1513=ORIENTED_EDGE('',*,*,#1508,.F.) ;
#1522=ORIENTED_EDGE('',*,*,#1503,.F.) ;
#1523=ORIENTED_EDGE('',*,*,#1474,.F.) ;
#1524=ORIENTED_EDGE('',*,*,#1443,.F.) ;
#1525=ORIENTED_EDGE('',*,*,#1412,.F.) ;
#1534=ORIENTED_EDGE('',*,*,#1424,.T.) ;
#1535=ORIENTED_EDGE('',*,*,#1455,.T.) ;
#1536=ORIENTED_EDGE('',*,*,#1486,.T.) ;
#1537=ORIENTED_EDGE('',*,*,#1508,.T.) ;
#1577=ORIENTED_EDGE('',*,*,#1556,.F.) ;
#1578=ORIENTED_EDGE('',*,*,#1563,.T.) ;
#1579=ORIENTED_EDGE('',*,*,#1570,.T.) ;
#1580=ORIENTED_EDGE('',*,*,#1575,.F.) ;
#1608=ORIENTED_EDGE('',*,*,#1570,.F.) ;
#1609=ORIENTED_EDGE('',*,*,#1594,.T.) ;
#1610=ORIENTED_EDGE('',*,*,#1601,.T.) ;
#1611=ORIENTED_EDGE('',*,*,#1606,.F.) ;
#1639=ORIENTED_EDGE('',*,*,#1601,.F.) ;
#1640=ORIENTED_EDGE('',*,*,#1625,.T.) ;
#1641=ORIENTED_EDGE('',*,*,#1632,.T.) ;
#1642=ORIENTED_EDGE('',*,*,#1637,.F.) ;
#1661=ORIENTED_EDGE('',*,*,#1632,.F.) ;
#1662=ORIENTED_EDGE('',*,*,#1654,.T.) ;
#1663=ORIENTED_EDGE('',*,*,#1556,.T.) ;
#1664=ORIENTED_EDGE('',*,*,#1659,.F.) ;
#1673=ORIENTED_EDGE('',*,*,#1654,.F.) ;
#1674=ORIENTED_EDGE('',*,*,#1625,.F.) ;
#1675=ORIENTED_EDGE('',*,*,#1594,.F.) ;
#1676=ORIENTED_EDGE('',*,*,#1563,.F.) ;
#1685=ORIENTED_EDGE('',*,*,#1575,.T.) ;
#1686=ORIENTED_EDGE('',*,*,#1606,.T.) ;
#1687=ORIENTED_EDGE('',*,*,#1637,.T.) ;
#1688=ORIENTED_EDGE('',*,*,#1659,.T.) ;
#1728=ORIENTED_EDGE('',*,*,#1707,.F.) ;
#1729=ORIENTED_EDGE('',*,*,#1714,.T.) ;
#1730=ORIENTED_EDGE('',*,*,#1721,.T.) ;
#1731=ORIENTED_EDGE('',*,*,#1726,.F.) ;
#1759=ORIENTED_EDGE('',*,*,#1721,.F.) ;
#1760=ORIENTED_EDGE('',*,*,#1745,.T.) ;
#1761=ORIENTED_EDGE('',*,*,#1752,.T.) ;
#1762=ORIENTED_EDGE('',*,*,#1757,.F.) ;
#1790=ORIENTED_EDGE('',*,*,#1752,.F.) ;
#1791=ORIENTED_EDGE('',*,*,#1776,.T.) ;
#1792=ORIENTED_EDGE('',*,*,#1783,.T.) ;
#1793=ORIENTED_EDGE('',*,*,#1788,.F.) ;
#1812=ORIENTED_EDGE('',*,*,#1783,.F.) ;
#1813=ORIENTED_EDGE('',*,*,#1805,.T.) ;
#1814=ORIENTED_EDGE('',*,*,#1707,.T.) ;
#1815=ORIENTED_EDGE('',*,*,#1810,.F.) ;
#1824=ORIENTED_EDGE('',*,*,#1805,.F.) ;
#1825=ORIENTED_EDGE('',*,*,#1776,.F.) ;
#1826=ORIENTED_EDGE('',*,*,#1745,.F.) ;
#1827=ORIENTED_EDGE('',*,*,#1714,.F.) ;
#1836=ORIENTED_EDGE('',*,*,#1726,.T.) ;
#1837=ORIENTED_EDGE('',*,*,#1757,.T.) ;
#1838=ORIENTED_EDGE('',*,*,#1788,.T.) ;
#1839=ORIENTED_EDGE('',*,*,#1810,.T.) ;
#1879=ORIENTED_EDGE('',*,*,#1858,.T.) ;
#1880=ORIENTED_EDGE('',*,*,#1865,.F.) ;
#1881=ORIENTED_EDGE('',*,*,#1872,.F.) ;
#1882=ORIENTED_EDGE('',*,*,#1877,.T.) ;
#1910=ORIENTED_EDGE('',*,*,#1896,.T.) ;
#1911=ORIENTED_EDGE('',*,*,#1903,.F.) ;
#1912=ORIENTED_EDGE('',*,*,#1908,.F.) ;
#1913=ORIENTED_EDGE('',*,*,#1865,.T.) ;
#1941=ORIENTED_EDGE('',*,*,#1927,.T.) ;
#1942=ORIENTED_EDGE('',*,*,#1934,.F.) ;
#1943=ORIENTED_EDGE('',*,*,#1939,.F.) ;
#1944=ORIENTED_EDGE('',*,*,#1903,.T.) ;
#1963=ORIENTED_EDGE('',*,*,#1956,.T.) ;
#1964=ORIENTED_EDGE('',*,*,#1877,.F.) ;
#1965=ORIENTED_EDGE('',*,*,#1961,.F.) ;
#1966=ORIENTED_EDGE('',*,*,#1934,.T.) ;
#1975=ORIENTED_EDGE('',*,*,#1872,.T.) ;
#1976=ORIENTED_EDGE('',*,*,#1908,.T.) ;
#1977=ORIENTED_EDGE('',*,*,#1939,.T.) ;
#1978=ORIENTED_EDGE('',*,*,#1961,.T.) ;
#1987=ORIENTED_EDGE('',*,*,#1956,.F.) ;
#1988=ORIENTED_EDGE('',*,*,#1927,.F.) ;
#1989=ORIENTED_EDGE('',*,*,#1896,.F.) ;
#1990=ORIENTED_EDGE('',*,*,#1858,.F.) ;
#2030=ORIENTED_EDGE('',*,*,#2009,.T.) ;
#2031=ORIENTED_EDGE('',*,*,#2016,.F.) ;
#2032=ORIENTED_EDGE('',*,*,#2023,.F.) ;
#2033=ORIENTED_EDGE('',*,*,#2028,.T.) ;
#2061=ORIENTED_EDGE('',*,*,#2047,.T.) ;
#2062=ORIENTED_EDGE('',*,*,#2054,.F.) ;
#2063=ORIENTED_EDGE('',*,*,#2059,.F.) ;
#2064=ORIENTED_EDGE('',*,*,#2016,.T.) ;
#2092=ORIENTED_EDGE('',*,*,#2078,.T.) ;
#2093=ORIENTED_EDGE('',*,*,#2085,.F.) ;
#2094=ORIENTED_EDGE('',*,*,#2090,.F.) ;
#2095=ORIENTED_EDGE('',*,*,#2054,.T.) ;
#2114=ORIENTED_EDGE('',*,*,#2107,.T.) ;
#2115=ORIENTED_EDGE('',*,*,#2028,.F.) ;
#2116=ORIENTED_EDGE('',*,*,#2112,.F.) ;
#2117=ORIENTED_EDGE('',*,*,#2085,.T.) ;
#2126=ORIENTED_EDGE('',*,*,#2023,.T.) ;
#2127=ORIENTED_EDGE('',*,*,#2059,.T.) ;
#2128=ORIENTED_EDGE('',*,*,#2090,.T.) ;
#2129=ORIENTED_EDGE('',*,*,#2112,.T.) ;
#2138=ORIENTED_EDGE('',*,*,#2107,.F.) ;
#2139=ORIENTED_EDGE('',*,*,#2078,.F.) ;
#2140=ORIENTED_EDGE('',*,*,#2047,.F.) ;
#2141=ORIENTED_EDGE('',*,*,#2009,.F.) ;
#30=CLOSED_SHELL('Closed Shell',(#70,#101,#125,#149,#166,#178)) ;
#183=CLOSED_SHELL('Closed Shell',(#223,#254,#285,#307,#319,#331)) ;
#334=CLOSED_SHELL('Closed Shell',(#374,#405,#436,#458,#470,#482)) ;
#485=CLOSED_SHELL('Closed Shell',(#525,#556,#587,#609,#621,#633)) ;
#636=CLOSED_SHELL('Closed Shell',(#676,#707,#738,#760,#772,#784)) ;
#787=CLOSED_SHELL('Closed Shell',(#827,#858,#889,#911,#923,#935)) ;
#938=CLOSED_SHELL('Closed Shell',(#978,#1009,#1040,#1062,#1074,#1086)) ;
#1089=CLOSED_SHELL('Closed Shell',(#1129,#1160,#1191,#1213,#1225,#1237)) ;
#1240=CLOSED_SHELL('Closed Shell',(#1280,#1311,#1342,#1364,#1376,#1388)) ;
#1391=CLOSED_SHELL('Closed Shell',(#1431,#1462,#1493,#1515,#1527,#1539)) ;
#1542=CLOSED_SHELL('Closed Shell',(#1582,#1613,#1644,#1666,#1678,#1690)) ;
#1693=CLOSED_SHELL('Closed Shell',(#1733,#1764,#1795,#1817,#1829,#1841)) ;
#1844=CLOSED_SHELL('Closed Shell',(#1884,#1915,#1946,#1968,#1980,#1992)) ;
#1995=CLOSED_SHELL('Closed Shell',(#2035,#2066,#2097,#2119,#2131,#2143)) ;
#179=ADVANCED_BREP_SHAPE_REPRESENTATION('NONE',(#21,#181,#332,#483,#634,#785,#936,#1087,#1238,#1389,#1540,#1691,#1842,#1993),#16) ;
#70=ADVANCED_FACE('Hauptk\X2\00F6\X0\rper',(#69),#35,.F.) ;
#101=ADVANCED_FACE('Hauptk\X2\00F6\X0\rper',(#100),#75,.T.) ;
#125=ADVANCED_FACE('Hauptk\X2\00F6\X0\rper',(#124),#106,.T.) ;
#149=ADVANCED_FACE('Hauptk\X2\00F6\X0\rper',(#148),#130,.F.) ;
#166=ADVANCED_FACE('Hauptk\X2\00F6\X0\rper',(#165),#154,.T.) ;
#178=ADVANCED_FACE('Hauptk\X2\00F6\X0\rper',(#177),#171,.T.) ;
#223=ADVANCED_FACE('K\X2\00F6\X0\rper.2',(#222),#188,.F.) ;
#254=ADVANCED_FACE('K\X2\00F6\X0\rper.2',(#253),#228,.F.) ;
#285=ADVANCED_FACE('K\X2\00F6\X0\rper.2',(#284),#259,.F.) ;
#307=ADVANCED_FACE('K\X2\00F6\X0\rper.2',(#306),#290,.F.) ;
#319=ADVANCED_FACE('K\X2\00F6\X0\rper.2',(#318),#312,.F.) ;
#331=ADVANCED_FACE('K\X2\00F6\X0\rper.2',(#330),#324,.T.) ;
#374=ADVANCED_FACE('K\X2\00F6\X0\rper.3',(#373),#339,.T.) ;
#405=ADVANCED_FACE('K\X2\00F6\X0\rper.3',(#404),#379,.T.) ;
#436=ADVANCED_FACE('K\X2\00F6\X0\rper.3',(#435),#410,.T.) ;
#458=ADVANCED_FACE('K\X2\00F6\X0\rper.3',(#457),#441,.T.) ;
#470=ADVANCED_FACE('K\X2\00F6\X0\rper.3',(#469),#463,.F.) ;
#482=ADVANCED_FACE('K\X2\00F6\X0\rper.3',(#481),#475,.T.) ;
#525=ADVANCED_FACE('K\X2\00F6\X0\rper.4',(#524),#490,.F.) ;
#556=ADVANCED_FACE('K\X2\00F6\X0\rper.4',(#555),#530,.F.) ;
#587=ADVANCED_FACE('K\X2\00F6\X0\rper.4',(#586),#561,.F.) ;
#609=ADVANCED_FACE('K\X2\00F6\X0\rper.4',(#608),#592,.F.) ;
#621=ADVANCED_FACE('K\X2\00F6\X0\rper.4',(#620),#614,.F.) ;
#633=ADVANCED_FACE('K\X2\00F6\X0\rper.4',(#632),#626,.T.) ;
#676=ADVANCED_FACE('K\X2\00F6\X0\rper.5',(#675),#641,.T.) ;
#707=ADVANCED_FACE('K\X2\00F6\X0\rper.5',(#706),#681,.F.) ;
#738=ADVANCED_FACE('K\X2\00F6\X0\rper.5',(#737),#712,.T.) ;
#760=ADVANCED_FACE('K\X2\00F6\X0\rper.5',(#759),#743,.F.) ;
#772=ADVANCED_FACE('K\X2\00F6\X0\rper.5',(#771),#765,.F.) ;
#784=ADVANCED_FACE('K\X2\00F6\X0\rper.5',(#783),#777,.T.) ;
#827=ADVANCED_FACE('K\X2\00F6\X0\rper.6',(#826),#792,.F.) ;
#858=ADVANCED_FACE('K\X2\00F6\X0\rper.6',(#857),#832,.F.) ;
#889=ADVANCED_FACE('K\X2\00F6\X0\rper.6',(#888),#863,.F.) ;
#911=ADVANCED_FACE('K\X2\00F6\X0\rper.6',(#910),#894,.F.) ;
#923=ADVANCED_FACE('K\X2\00F6\X0\rper.6',(#922),#916,.F.) ;
#935=ADVANCED_FACE('K\X2\00F6\X0\rper.6',(#934),#928,.T.) ;
#978=ADVANCED_FACE('K\X2\00F6\X0\rper.7',(#977),#943,.T.) ;
#1009=ADVANCED_FACE('K\X2\00F6\X0\rper.7',(#1008),#983,.T.) ;
#1040=ADVANCED_FACE('K\X2\00F6\X0\rper.7',(#1039),#1014,.T.) ;
#1062=ADVANCED_FACE('K\X2\00F6\X0\rper.7',(#1061),#1045,.T.) ;
#1074=ADVANCED_FACE('K\X2\00F6\X0\rper.7',(#1073),#1067,.F.) ;
#1086=ADVANCED_FACE('K\X2\00F6\X0\rper.7',(#1085),#1079,.T.) ;
#1129=ADVANCED_FACE('K\X2\00F6\X0\rper.8',(#1128),#1094,.F.) ;
#1160=ADVANCED_FACE('K\X2\00F6\X0\rper.8',(#1159),#1134,.F.) ;
#1191=ADVANCED_FACE('K\X2\00F6\X0\rper.8',(#1190),#1165,.F.) ;
#1213=ADVANCED_FACE('K\X2\00F6\X0\rper.8',(#1212),#1196,.F.) ;
#1225=ADVANCED_FACE('K\X2\00F6\X0\rper.8',(#1224),#1218,.F.) ;
#1237=ADVANCED_FACE('K\X2\00F6\X0\rper.8',(#1236),#1230,.T.) ;
#1280=ADVANCED_FACE('K\X2\00F6\X0\rper.9',(#1279),#1245,.T.) ;
#1311=ADVANCED_FACE('K\X2\00F6\X0\rper.9',(#1310),#1285,.T.) ;
#1342=ADVANCED_FACE('K\X2\00F6\X0\rper.9',(#1341),#1316,.T.) ;
#1364=ADVANCED_FACE('K\X2\00F6\X0\rper.9',(#1363),#1347,.T.) ;
#1376=ADVANCED_FACE('K\X2\00F6\X0\rper.9',(#1375),#1369,.F.) ;
#1388=ADVANCED_FACE('K\X2\00F6\X0\rper.9',(#1387),#1381,.T.) ;
#1431=ADVANCED_FACE('K\X2\00F6\X0\rper.10',(#1430),#1396,.F.) ;
#1462=ADVANCED_FACE('K\X2\00F6\X0\rper.10',(#1461),#1436,.F.) ;
#1493=ADVANCED_FACE('K\X2\00F6\X0\rper.10',(#1492),#1467,.F.) ;
#1515=ADVANCED_FACE('K\X2\00F6\X0\rper.10',(#1514),#1498,.F.) ;
#1527=ADVANCED_FACE('K\X2\00F6\X0\rper.10',(#1526),#1520,.F.) ;
#1539=ADVANCED_FACE('K\X2\00F6\X0\rper.10',(#1538),#1532,.T.) ;
#1582=ADVANCED_FACE('K\X2\00F6\X0\rper.11',(#1581),#1547,.T.) ;
#1613=ADVANCED_FACE('K\X2\00F6\X0\rper.11',(#1612),#1587,.T.) ;
#1644=ADVANCED_FACE('K\X2\00F6\X0\rper.11',(#1643),#1618,.T.) ;
#1666=ADVANCED_FACE('K\X2\00F6\X0\rper.11',(#1665),#1649,.T.) ;
#1678=ADVANCED_FACE('K\X2\00F6\X0\rper.11',(#1677),#1671,.F.) ;
#1690=ADVANCED_FACE('K\X2\00F6\X0\rper.11',(#1689),#1683,.T.) ;
#1733=ADVANCED_FACE('K\X2\00F6\X0\rper.12',(#1732),#1698,.T.) ;
#1764=ADVANCED_FACE('K\X2\00F6\X0\rper.12',(#1763),#1738,.T.) ;
#1795=ADVANCED_FACE('K\X2\00F6\X0\rper.12',(#1794),#1769,.T.) ;
#1817=ADVANCED_FACE('K\X2\00F6\X0\rper.12',(#1816),#1800,.T.) ;
#1829=ADVANCED_FACE('K\X2\00F6\X0\rper.12',(#1828),#1822,.F.) ;
#1841=ADVANCED_FACE('K\X2\00F6\X0\rper.12',(#1840),#1834,.T.) ;
#1884=ADVANCED_FACE('K\X2\00F6\X0\rper.13',(#1883),#1849,.T.) ;
#1915=ADVANCED_FACE('K\X2\00F6\X0\rper.13',(#1914),#1889,.F.) ;
#1946=ADVANCED_FACE('K\X2\00F6\X0\rper.13',(#1945),#1920,.T.) ;
#1968=ADVANCED_FACE('K\X2\00F6\X0\rper.13',(#1967),#1951,.F.) ;
#1980=ADVANCED_FACE('K\X2\00F6\X0\rper.13',(#1979),#1973,.T.) ;
#1992=ADVANCED_FACE('K\X2\00F6\X0\rper.13',(#1991),#1985,.F.) ;
#2035=ADVANCED_FACE('K\X2\00F6\X0\rper.14',(#2034),#2000,.F.) ;
#2066=ADVANCED_FACE('K\X2\00F6\X0\rper.14',(#2065),#2040,.F.) ;
#2097=ADVANCED_FACE('K\X2\00F6\X0\rper.14',(#2096),#2071,.F.) ;
#2119=ADVANCED_FACE('K\X2\00F6\X0\rper.14',(#2118),#2102,.F.) ;
#2131=ADVANCED_FACE('K\X2\00F6\X0\rper.14',(#2130),#2124,.T.) ;
#2143=ADVANCED_FACE('K\X2\00F6\X0\rper.14',(#2142),#2136,.F.) ;
#4=APPLICATION_PROTOCOL_DEFINITION('international standard','automotive_design',2001,#1) ;
#21=MANIFOLD_SOLID_BREP('Hauptk\X2\00F6\X0\rper',#30) ;
#181=MANIFOLD_SOLID_BREP('K\X2\00F6\X0\rper.2',#183) ;
#332=MANIFOLD_SOLID_BREP('K\X2\00F6\X0\rper.3',#334) ;
#483=MANIFOLD_SOLID_BREP('K\X2\00F6\X0\rper.4',#485) ;
#634=MANIFOLD_SOLID_BREP('K\X2\00F6\X0\rper.5',#636) ;
#785=MANIFOLD_SOLID_BREP('K\X2\00F6\X0\rper.6',#787) ;
#936=MANIFOLD_SOLID_BREP('K\X2\00F6\X0\rper.7',#938) ;
#1087=MANIFOLD_SOLID_BREP('K\X2\00F6\X0\rper.8',#1089) ;
#1238=MANIFOLD_SOLID_BREP('K\X2\00F6\X0\rper.9',#1240) ;
#1389=MANIFOLD_SOLID_BREP('K\X2\00F6\X0\rper.10',#1391) ;
#1540=MANIFOLD_SOLID_BREP('K\X2\00F6\X0\rper.11',#1542) ;
#1691=MANIFOLD_SOLID_BREP('K\X2\00F6\X0\rper.12',#1693) ;
#1842=MANIFOLD_SOLID_BREP('K\X2\00F6\X0\rper.13',#1844) ;
#1993=MANIFOLD_SOLID_BREP('K\X2\00F6\X0\rper.14',#1995) ;
#22=COLOUR_RGB('Colour',0.823529411765,0.823529411765,1.) ;
#44=EDGE_CURVE('',#41,#43,#39,.T.) ;
#51=EDGE_CURVE('',#50,#43,#48,.T.) ;
#58=EDGE_CURVE('',#57,#50,#55,.T.) ;
#63=EDGE_CURVE('',#57,#41,#62,.T.) ;
#84=EDGE_CURVE('',#81,#83,#79,.T.) ;
#89=EDGE_CURVE('',#50,#81,#88,.F.) ;
#94=EDGE_CURVE('',#83,#43,#93,.T.) ;
#113=EDGE_CURVE('',#41,#112,#110,.T.) ;
#118=EDGE_CURVE('',#112,#83,#117,.T.) ;
#137=EDGE_CURVE('',#81,#136,#134,.F.) ;
#142=EDGE_CURVE('',#136,#57,#141,.F.) ;
#159=EDGE_CURVE('',#136,#112,#158,.T.) ;
#197=EDGE_CURVE('',#194,#196,#192,.T.) ;
#204=EDGE_CURVE('',#194,#203,#201,.F.) ;
#211=EDGE_CURVE('',#203,#210,#208,.T.) ;
#216=EDGE_CURVE('',#196,#210,#215,.F.) ;
#235=EDGE_CURVE('',#203,#234,#232,.F.) ;
#242=EDGE_CURVE('',#234,#241,#239,.T.) ;
#247=EDGE_CURVE('',#210,#241,#246,.F.) ;
#266=EDGE_CURVE('',#234,#265,#263,.F.) ;
#273=EDGE_CURVE('',#265,#272,#270,.T.) ;
#278=EDGE_CURVE('',#241,#272,#277,.F.) ;
#295=EDGE_CURVE('',#265,#194,#294,.F.) ;
#300=EDGE_CURVE('',#272,#196,#299,.F.) ;
#348=EDGE_CURVE('',#345,#347,#343,.T.) ;
#355=EDGE_CURVE('',#345,#354,#352,.T.) ;
#362=EDGE_CURVE('',#354,#361,#359,.T.) ;
#367=EDGE_CURVE('',#347,#361,#366,.T.) ;
#386=EDGE_CURVE('',#354,#385,#383,.T.) ;
#393=EDGE_CURVE('',#385,#392,#390,.T.) ;
#398=EDGE_CURVE('',#361,#392,#397,.T.) ;
#417=EDGE_CURVE('',#385,#416,#414,.T.) ;
#424=EDGE_CURVE('',#416,#423,#421,.T.) ;
#429=EDGE_CURVE('',#392,#423,#428,.T.) ;
#446=EDGE_CURVE('',#416,#345,#445,.T.) ;
#451=EDGE_CURVE('',#423,#347,#450,.T.) ;
#499=EDGE_CURVE('',#496,#498,#494,.T.) ;
#506=EDGE_CURVE('',#496,#505,#503,.F.) ;
#513=EDGE_CURVE('',#505,#512,#510,.T.) ;
#518=EDGE_CURVE('',#498,#512,#517,.F.) ;
#537=EDGE_CURVE('',#505,#536,#534,.F.) ;
#544=EDGE_CURVE('',#536,#543,#541,.T.) ;
#549=EDGE_CURVE('',#512,#543,#548,.F.) ;
#568=EDGE_CURVE('',#536,#567,#565,.F.) ;
#575=EDGE_CURVE('',#567,#574,#572,.T.) ;
#580=EDGE_CURVE('',#543,#574,#579,.F.) ;
#597=EDGE_CURVE('',#567,#496,#596,.F.) ;
#602=EDGE_CURVE('',#574,#498,#601,.F.) ;
#650=EDGE_CURVE('',#647,#649,#645,.T.) ;
#657=EDGE_CURVE('',#647,#656,#654,.T.) ;
#664=EDGE_CURVE('',#656,#663,#661,.T.) ;
#669=EDGE_CURVE('',#649,#663,#668,.T.) ;
#688=EDGE_CURVE('',#656,#687,#685,.F.) ;
#695=EDGE_CURVE('',#687,#694,#692,.T.) ;
#700=EDGE_CURVE('',#663,#694,#699,.F.) ;
#719=EDGE_CURVE('',#687,#718,#716,.T.) ;
#726=EDGE_CURVE('',#718,#725,#723,.T.) ;
#731=EDGE_CURVE('',#694,#725,#730,.T.) ;
#748=EDGE_CURVE('',#718,#647,#747,.F.) ;
#753=EDGE_CURVE('',#725,#649,#752,.F.) ;
#801=EDGE_CURVE('',#798,#800,#796,.T.) ;
#808=EDGE_CURVE('',#798,#807,#805,.F.) ;
#815=EDGE_CURVE('',#807,#814,#812,.T.) ;
#820=EDGE_CURVE('',#800,#814,#819,.F.) ;
#839=EDGE_CURVE('',#807,#838,#836,.F.) ;
#846=EDGE_CURVE('',#838,#845,#843,.T.) ;
#851=EDGE_CURVE('',#814,#845,#850,.F.) ;
#870=EDGE_CURVE('',#838,#869,#867,.F.) ;
#877=EDGE_CURVE('',#869,#876,#874,.T.) ;
#882=EDGE_CURVE('',#845,#876,#881,.F.) ;
#899=EDGE_CURVE('',#869,#798,#898,.F.) ;
#904=EDGE_CURVE('',#876,#800,#903,.F.) ;
#952=EDGE_CURVE('',#949,#951,#947,.T.) ;
#959=EDGE_CURVE('',#949,#958,#956,.T.) ;
#966=EDGE_CURVE('',#958,#965,#963,.T.) ;
#971=EDGE_CURVE('',#951,#965,#970,.T.) ;
#990=EDGE_CURVE('',#958,#989,#987,.T.) ;
#997=EDGE_CURVE('',#989,#996,#994,.T.) ;
#1002=EDGE_CURVE('',#965,#996,#1001,.T.) ;
#1021=EDGE_CURVE('',#989,#1020,#1018,.T.) ;
#1028=EDGE_CURVE('',#1020,#1027,#1025,.T.) ;
#1033=EDGE_CURVE('',#996,#1027,#1032,.T.) ;
#1050=EDGE_CURVE('',#1020,#949,#1049,.T.) ;
#1055=EDGE_CURVE('',#1027,#951,#1054,.T.) ;
#1103=EDGE_CURVE('',#1100,#1102,#1098,.T.) ;
#1110=EDGE_CURVE('',#1100,#1109,#1107,.F.) ;
#1117=EDGE_CURVE('',#1109,#1116,#1114,.T.) ;
#1122=EDGE_CURVE('',#1102,#1116,#1121,.F.) ;
#1141=EDGE_CURVE('',#1109,#1140,#1138,.F.) ;
#1148=EDGE_CURVE('',#1140,#1147,#1145,.T.) ;
#1153=EDGE_CURVE('',#1116,#1147,#1152,.F.) ;
#1172=EDGE_CURVE('',#1140,#1171,#1169,.F.) ;
#1179=EDGE_CURVE('',#1171,#1178,#1176,.T.) ;
#1184=EDGE_CURVE('',#1147,#1178,#1183,.F.) ;
#1201=EDGE_CURVE('',#1171,#1100,#1200,.F.) ;
#1206=EDGE_CURVE('',#1178,#1102,#1205,.F.) ;
#1254=EDGE_CURVE('',#1251,#1253,#1249,.T.) ;
#1261=EDGE_CURVE('',#1251,#1260,#1258,.T.) ;
#1268=EDGE_CURVE('',#1260,#1267,#1265,.T.) ;
#1273=EDGE_CURVE('',#1253,#1267,#1272,.T.) ;
#1292=EDGE_CURVE('',#1260,#1291,#1289,.T.) ;
#1299=EDGE_CURVE('',#1291,#1298,#1296,.T.) ;
#1304=EDGE_CURVE('',#1267,#1298,#1303,.T.) ;
#1323=EDGE_CURVE('',#1291,#1322,#1320,.T.) ;
#1330=EDGE_CURVE('',#1322,#1329,#1327,.T.) ;
#1335=EDGE_CURVE('',#1298,#1329,#1334,.T.) ;
#1352=EDGE_CURVE('',#1322,#1251,#1351,.T.) ;
#1357=EDGE_CURVE('',#1329,#1253,#1356,.T.) ;
#1405=EDGE_CURVE('',#1402,#1404,#1400,.T.) ;
#1412=EDGE_CURVE('',#1402,#1411,#1409,.F.) ;
#1419=EDGE_CURVE('',#1411,#1418,#1416,.T.) ;
#1424=EDGE_CURVE('',#1404,#1418,#1423,.F.) ;
#1443=EDGE_CURVE('',#1411,#1442,#1440,.F.) ;
#1450=EDGE_CURVE('',#1442,#1449,#1447,.T.) ;
#1455=EDGE_CURVE('',#1418,#1449,#1454,.F.) ;
#1474=EDGE_CURVE('',#1442,#1473,#1471,.F.) ;
#1481=EDGE_CURVE('',#1473,#1480,#1478,.T.) ;
#1486=EDGE_CURVE('',#1449,#1480,#1485,.F.) ;
#1503=EDGE_CURVE('',#1473,#1402,#1502,.F.) ;
#1508=EDGE_CURVE('',#1480,#1404,#1507,.F.) ;
#1556=EDGE_CURVE('',#1553,#1555,#1551,.T.) ;
#1563=EDGE_CURVE('',#1553,#1562,#1560,.T.) ;
#1570=EDGE_CURVE('',#1562,#1569,#1567,.T.) ;
#1575=EDGE_CURVE('',#1555,#1569,#1574,.T.) ;
#1594=EDGE_CURVE('',#1562,#1593,#1591,.T.) ;
#1601=EDGE_CURVE('',#1593,#1600,#1598,.T.) ;
#1606=EDGE_CURVE('',#1569,#1600,#1605,.T.) ;
#1625=EDGE_CURVE('',#1593,#1624,#1622,.T.) ;
#1632=EDGE_CURVE('',#1624,#1631,#1629,.T.) ;
#1637=EDGE_CURVE('',#1600,#1631,#1636,.T.) ;
#1654=EDGE_CURVE('',#1624,#1553,#1653,.T.) ;
#1659=EDGE_CURVE('',#1631,#1555,#1658,.T.) ;
#1707=EDGE_CURVE('',#1704,#1706,#1702,.T.) ;
#1714=EDGE_CURVE('',#1704,#1713,#1711,.T.) ;
#1721=EDGE_CURVE('',#1713,#1720,#1718,.T.) ;
#1726=EDGE_CURVE('',#1706,#1720,#1725,.T.) ;
#1745=EDGE_CURVE('',#1713,#1744,#1742,.T.) ;
#1752=EDGE_CURVE('',#1744,#1751,#1749,.T.) ;
#1757=EDGE_CURVE('',#1720,#1751,#1756,.T.) ;
#1776=EDGE_CURVE('',#1744,#1775,#1773,.T.) ;
#1783=EDGE_CURVE('',#1775,#1782,#1780,.T.) ;
#1788=EDGE_CURVE('',#1751,#1782,#1787,.T.) ;
#1805=EDGE_CURVE('',#1775,#1704,#1804,.T.) ;
#1810=EDGE_CURVE('',#1782,#1706,#1809,.T.) ;
#1858=EDGE_CURVE('',#1855,#1857,#1853,.F.) ;
#1865=EDGE_CURVE('',#1864,#1857,#1862,.T.) ;
#1872=EDGE_CURVE('',#1871,#1864,#1869,.F.) ;
#1877=EDGE_CURVE('',#1871,#1855,#1876,.T.) ;
#1896=EDGE_CURVE('',#1857,#1895,#1893,.T.) ;
#1903=EDGE_CURVE('',#1902,#1895,#1900,.T.) ;
#1908=EDGE_CURVE('',#1864,#1902,#1907,.T.) ;
#1927=EDGE_CURVE('',#1895,#1926,#1924,.F.) ;
#1934=EDGE_CURVE('',#1933,#1926,#1931,.T.) ;
#1939=EDGE_CURVE('',#1902,#1933,#1938,.F.) ;
#1956=EDGE_CURVE('',#1926,#1855,#1955,.T.) ;
#1961=EDGE_CURVE('',#1933,#1871,#1960,.T.) ;
#2009=EDGE_CURVE('',#2006,#2008,#2004,.T.) ;
#2016=EDGE_CURVE('',#2015,#2008,#2013,.T.) ;
#2023=EDGE_CURVE('',#2022,#2015,#2020,.T.) ;
#2028=EDGE_CURVE('',#2022,#2006,#2027,.T.) ;
#2047=EDGE_CURVE('',#2008,#2046,#2044,.T.) ;
#2054=EDGE_CURVE('',#2053,#2046,#2051,.T.) ;
#2059=EDGE_CURVE('',#2015,#2053,#2058,.T.) ;
#2078=EDGE_CURVE('',#2046,#2077,#2075,.T.) ;
#2085=EDGE_CURVE('',#2084,#2077,#2082,.T.) ;
#2090=EDGE_CURVE('',#2053,#2084,#2089,.T.) ;
#2107=EDGE_CURVE('',#2077,#2006,#2106,.T.) ;
#2112=EDGE_CURVE('',#2084,#2022,#2111,.T.) ;
#64=EDGE_LOOP('',(#65,#66,#67,#68)) ;
#95=EDGE_LOOP('',(#96,#97,#98,#99)) ;
#119=EDGE_LOOP('',(#120,#121,#122,#123)) ;
#143=EDGE_LOOP('',(#144,#145,#146,#147)) ;
#160=EDGE_LOOP('',(#161,#162,#163,#164)) ;
#172=EDGE_LOOP('',(#173,#174,#175,#176)) ;
#217=EDGE_LOOP('',(#218,#219,#220,#221)) ;
#248=EDGE_LOOP('',(#249,#250,#251,#252)) ;
#279=EDGE_LOOP('',(#280,#281,#282,#283)) ;
#301=EDGE_LOOP('',(#302,#303,#304,#305)) ;
#313=EDGE_LOOP('',(#314,#315,#316,#317)) ;
#325=EDGE_LOOP('',(#326,#327,#328,#329)) ;
#368=EDGE_LOOP('',(#369,#370,#371,#372)) ;
#399=EDGE_LOOP('',(#400,#401,#402,#403)) ;
#430=EDGE_LOOP('',(#431,#432,#433,#434)) ;
#452=EDGE_LOOP('',(#453,#454,#455,#456)) ;
#464=EDGE_LOOP('',(#465,#466,#467,#468)) ;
#476=EDGE_LOOP('',(#477,#478,#479,#480)) ;
#519=EDGE_LOOP('',(#520,#521,#522,#523)) ;
#550=EDGE_LOOP('',(#551,#552,#553,#554)) ;
#581=EDGE_LOOP('',(#582,#583,#584,#585)) ;
#603=EDGE_LOOP('',(#604,#605,#606,#607)) ;
#615=EDGE_LOOP('',(#616,#617,#618,#619)) ;
#627=EDGE_LOOP('',(#628,#629,#630,#631)) ;
#670=EDGE_LOOP('',(#671,#672,#673,#674)) ;
#701=EDGE_LOOP('',(#702,#703,#704,#705)) ;
#732=EDGE_LOOP('',(#733,#734,#735,#736)) ;
#754=EDGE_LOOP('',(#755,#756,#757,#758)) ;
#766=EDGE_LOOP('',(#767,#768,#769,#770)) ;
#778=EDGE_LOOP('',(#779,#780,#781,#782)) ;
#821=EDGE_LOOP('',(#822,#823,#824,#825)) ;
#852=EDGE_LOOP('',(#853,#854,#855,#856)) ;
#883=EDGE_LOOP('',(#884,#885,#886,#887)) ;
#905=EDGE_LOOP('',(#906,#907,#908,#909)) ;
#917=EDGE_LOOP('',(#918,#919,#920,#921)) ;
#929=EDGE_LOOP('',(#930,#931,#932,#933)) ;
#972=EDGE_LOOP('',(#973,#974,#975,#976)) ;
#1003=EDGE_LOOP('',(#1004,#1005,#1006,#1007)) ;
#1034=EDGE_LOOP('',(#1035,#1036,#1037,#1038)) ;
#1056=EDGE_LOOP('',(#1057,#1058,#1059,#1060)) ;
#1068=EDGE_LOOP('',(#1069,#1070,#1071,#1072)) ;
#1080=EDGE_LOOP('',(#1081,#1082,#1083,#1084)) ;
#1123=EDGE_LOOP('',(#1124,#1125,#1126,#1127)) ;
#1154=EDGE_LOOP('',(#1155,#1156,#1157,#1158)) ;
#1185=EDGE_LOOP('',(#1186,#1187,#1188,#1189)) ;
#1207=EDGE_LOOP('',(#1208,#1209,#1210,#1211)) ;
#1219=EDGE_LOOP('',(#1220,#1221,#1222,#1223)) ;
#1231=EDGE_LOOP('',(#1232,#1233,#1234,#1235)) ;
#1274=EDGE_LOOP('',(#1275,#1276,#1277,#1278)) ;
#1305=EDGE_LOOP('',(#1306,#1307,#1308,#1309)) ;
#1336=EDGE_LOOP('',(#1337,#1338,#1339,#1340)) ;
#1358=EDGE_LOOP('',(#1359,#1360,#1361,#1362)) ;
#1370=EDGE_LOOP('',(#1371,#1372,#1373,#1374)) ;
#1382=EDGE_LOOP('',(#1383,#1384,#1385,#1386)) ;
#1425=EDGE_LOOP('',(#1426,#1427,#1428,#1429)) ;
#1456=EDGE_LOOP('',(#1457,#1458,#1459,#1460)) ;
#1487=EDGE_LOOP('',(#1488,#1489,#1490,#1491)) ;
#1509=EDGE_LOOP('',(#1510,#1511,#1512,#1513)) ;
#1521=EDGE_LOOP('',(#1522,#1523,#1524,#1525)) ;
#1533=EDGE_LOOP('',(#1534,#1535,#1536,#1537)) ;
#1576=EDGE_LOOP('',(#1577,#1578,#1579,#1580)) ;
#1607=EDGE_LOOP('',(#1608,#1609,#1610,#1611)) ;
#1638=EDGE_LOOP('',(#1639,#1640,#1641,#1642)) ;
#1660=EDGE_LOOP('',(#1661,#1662,#1663,#1664)) ;
#1672=EDGE_LOOP('',(#1673,#1674,#1675,#1676)) ;
#1684=EDGE_LOOP('',(#1685,#1686,#1687,#1688)) ;
#1727=EDGE_LOOP('',(#1728,#1729,#1730,#1731)) ;
#1758=EDGE_LOOP('',(#1759,#1760,#1761,#1762)) ;
#1789=EDGE_LOOP('',(#1790,#1791,#1792,#1793)) ;
#1811=EDGE_LOOP('',(#1812,#1813,#1814,#1815)) ;
#1823=EDGE_LOOP('',(#1824,#1825,#1826,#1827)) ;
#1835=EDGE_LOOP('',(#1836,#1837,#1838,#1839)) ;
#1878=EDGE_LOOP('',(#1879,#1880,#1881,#1882)) ;
#1909=EDGE_LOOP('',(#1910,#1911,#1912,#1913)) ;
#1940=EDGE_LOOP('',(#1941,#1942,#1943,#1944)) ;
#1962=EDGE_LOOP('',(#1963,#1964,#1965,#1966)) ;
#1974=EDGE_LOOP('',(#1975,#1976,#1977,#1978)) ;
#1986=EDGE_LOOP('',(#1987,#1988,#1989,#1990)) ;
#2029=EDGE_LOOP('',(#2030,#2031,#2032,#2033)) ;
#2060=EDGE_LOOP('',(#2061,#2062,#2063,#2064)) ;
#2091=EDGE_LOOP('',(#2092,#2093,#2094,#2095)) ;
#2113=EDGE_LOOP('',(#2114,#2115,#2116,#2117)) ;
#2125=EDGE_LOOP('',(#2126,#2127,#2128,#2129)) ;
#2137=EDGE_LOOP('',(#2138,#2139,#2140,#2141)) ;
#69=FACE_OUTER_BOUND('',#64,.T.) ;
#100=FACE_OUTER_BOUND('',#95,.T.) ;
#124=FACE_OUTER_BOUND('',#119,.T.) ;
#148=FACE_OUTER_BOUND('',#143,.T.) ;
#165=FACE_OUTER_BOUND('',#160,.T.) ;
#177=FACE_OUTER_BOUND('',#172,.T.) ;
#222=FACE_OUTER_BOUND('',#217,.T.) ;
#253=FACE_OUTER_BOUND('',#248,.T.) ;
#284=FACE_OUTER_BOUND('',#279,.T.) ;
#306=FACE_OUTER_BOUND('',#301,.T.) ;
#318=FACE_OUTER_BOUND('',#313,.T.) ;
#330=FACE_OUTER_BOUND('',#325,.T.) ;
#373=FACE_OUTER_BOUND('',#368,.T.) ;
#404=FACE_OUTER_BOUND('',#399,.T.) ;
#435=FACE_OUTER_BOUND('',#430,.T.) ;
#457=FACE_OUTER_BOUND('',#452,.T.) ;
#469=FACE_OUTER_BOUND('',#464,.T.) ;
#481=FACE_OUTER_BOUND('',#476,.T.) ;
#524=FACE_OUTER_BOUND('',#519,.T.) ;
#555=FACE_OUTER_BOUND('',#550,.T.) ;
#586=FACE_OUTER_BOUND('',#581,.T.) ;
#608=FACE_OUTER_BOUND('',#603,.T.) ;
#620=FACE_OUTER_BOUND('',#615,.T.) ;
#632=FACE_OUTER_BOUND('',#627,.T.) ;
#675=FACE_OUTER_BOUND('',#670,.T.) ;
#706=FACE_OUTER_BOUND('',#701,.T.) ;
#737=FACE_OUTER_BOUND('',#732,.T.) ;
#759=FACE_OUTER_BOUND('',#754,.T.) ;
#771=FACE_OUTER_BOUND('',#766,.T.) ;
#783=FACE_OUTER_BOUND('',#778,.T.) ;
#826=FACE_OUTER_BOUND('',#821,.T.) ;
#857=FACE_OUTER_BOUND('',#852,.T.) ;
#888=FACE_OUTER_BOUND('',#883,.T.) ;
#910=FACE_OUTER_BOUND('',#905,.T.) ;
#922=FACE_OUTER_BOUND('',#917,.T.) ;
#934=FACE_OUTER_BOUND('',#929,.T.) ;
#977=FACE_OUTER_BOUND('',#972,.T.) ;
#1008=FACE_OUTER_BOUND('',#1003,.T.) ;
#1039=FACE_OUTER_BOUND('',#1034,.T.) ;
#1061=FACE_OUTER_BOUND('',#1056,.T.) ;
#1073=FACE_OUTER_BOUND('',#1068,.T.) ;
#1085=FACE_OUTER_BOUND('',#1080,.T.) ;
#1128=FACE_OUTER_BOUND('',#1123,.T.) ;
#1159=FACE_OUTER_BOUND('',#1154,.T.) ;
#1190=FACE_OUTER_BOUND('',#1185,.T.) ;
#1212=FACE_OUTER_BOUND('',#1207,.T.) ;
#1224=FACE_OUTER_BOUND('',#1219,.T.) ;
#1236=FACE_OUTER_BOUND('',#1231,.T.) ;
#1279=FACE_OUTER_BOUND('',#1274,.T.) ;
#1310=FACE_OUTER_BOUND('',#1305,.T.) ;
#1341=FACE_OUTER_BOUND('',#1336,.T.) ;
#1363=FACE_OUTER_BOUND('',#1358,.T.) ;
#1375=FACE_OUTER_BOUND('',#1370,.T.) ;
#1387=FACE_OUTER_BOUND('',#1382,.T.) ;
#1430=FACE_OUTER_BOUND('',#1425,.T.) ;
#1461=FACE_OUTER_BOUND('',#1456,.T.) ;
#1492=FACE_OUTER_BOUND('',#1487,.T.) ;
#1514=FACE_OUTER_BOUND('',#1509,.T.) ;
#1526=FACE_OUTER_BOUND('',#1521,.T.) ;
#1538=FACE_OUTER_BOUND('',#1533,.T.) ;
#1581=FACE_OUTER_BOUND('',#1576,.T.) ;
#1612=FACE_OUTER_BOUND('',#1607,.T.) ;
#1643=FACE_OUTER_BOUND('',#1638,.T.) ;
#1665=FACE_OUTER_BOUND('',#1660,.T.) ;
#1677=FACE_OUTER_BOUND('',#1672,.T.) ;
#1689=FACE_OUTER_BOUND('',#1684,.T.) ;
#1732=FACE_OUTER_BOUND('',#1727,.T.) ;
#1763=FACE_OUTER_BOUND('',#1758,.T.) ;
#1794=FACE_OUTER_BOUND('',#1789,.T.) ;
#1816=FACE_OUTER_BOUND('',#1811,.T.) ;
#1828=FACE_OUTER_BOUND('',#1823,.T.) ;
#1840=FACE_OUTER_BOUND('',#1835,.T.) ;
#1883=FACE_OUTER_BOUND('',#1878,.T.) ;
#1914=FACE_OUTER_BOUND('',#1909,.T.) ;
#1945=FACE_OUTER_BOUND('',#1940,.T.) ;
#1967=FACE_OUTER_BOUND('',#1962,.T.) ;
#1979=FACE_OUTER_BOUND('',#1974,.T.) ;
#1991=FACE_OUTER_BOUND('',#1986,.T.) ;
#2034=FACE_OUTER_BOUND('',#2029,.T.) ;
#2065=FACE_OUTER_BOUND('',#2060,.T.) ;
#2096=FACE_OUTER_BOUND('',#2091,.T.) ;
#2118=FACE_OUTER_BOUND('',#2113,.T.) ;
#2130=FACE_OUTER_BOUND('',#2125,.T.) ;
#2142=FACE_OUTER_BOUND('',#2137,.T.) ;
#39=LINE('Line',#36,#38) ;
#48=LINE('Line',#45,#47) ;
#55=LINE('Line',#52,#54) ;
#62=LINE('Line',#59,#61) ;
#79=LINE('Line',#76,#78) ;
#88=LINE('Line',#85,#87) ;
#93=LINE('Line',#90,#92) ;
#110=LINE('Line',#107,#109) ;
#117=LINE('Line',#114,#116) ;
#134=LINE('Line',#131,#133) ;
#141=LINE('Line',#138,#140) ;
#158=LINE('Line',#155,#157) ;
#192=LINE('Line',#189,#191) ;
#201=LINE('Line',#198,#200) ;
#208=LINE('Line',#205,#207) ;
#215=LINE('Line',#212,#214) ;
#232=LINE('Line',#229,#231) ;
#239=LINE('Line',#236,#238) ;
#246=LINE('Line',#243,#245) ;
#263=LINE('Line',#260,#262) ;
#270=LINE('Line',#267,#269) ;
#277=LINE('Line',#274,#276) ;
#294=LINE('Line',#291,#293) ;
#299=LINE('Line',#296,#298) ;
#343=LINE('Line',#340,#342) ;
#352=LINE('Line',#349,#351) ;
#359=LINE('Line',#356,#358) ;
#366=LINE('Line',#363,#365) ;
#383=LINE('Line',#380,#382) ;
#390=LINE('Line',#387,#389) ;
#397=LINE('Line',#394,#396) ;
#414=LINE('Line',#411,#413) ;
#421=LINE('Line',#418,#420) ;
#428=LINE('Line',#425,#427) ;
#445=LINE('Line',#442,#444) ;
#450=LINE('Line',#447,#449) ;
#494=LINE('Line',#491,#493) ;
#503=LINE('Line',#500,#502) ;
#510=LINE('Line',#507,#509) ;
#517=LINE('Line',#514,#516) ;
#534=LINE('Line',#531,#533) ;
#541=LINE('Line',#538,#540) ;
#548=LINE('Line',#545,#547) ;
#565=LINE('Line',#562,#564) ;
#572=LINE('Line',#569,#571) ;
#579=LINE('Line',#576,#578) ;
#596=LINE('Line',#593,#595) ;
#601=LINE('Line',#598,#600) ;
#645=LINE('Line',#642,#644) ;
#654=LINE('Line',#651,#653) ;
#661=LINE('Line',#658,#660) ;
#668=LINE('Line',#665,#667) ;
#685=LINE('Line',#682,#684) ;
#692=LINE('Line',#689,#691) ;
#699=LINE('Line',#696,#698) ;
#716=LINE('Line',#713,#715) ;
#723=LINE('Line',#720,#722) ;
#730=LINE('Line',#727,#729) ;
#747=LINE('Line',#744,#746) ;
#752=LINE('Line',#749,#751) ;
#796=LINE('Line',#793,#795) ;
#805=LINE('Line',#802,#804) ;
#812=LINE('Line',#809,#811) ;
#819=LINE('Line',#816,#818) ;
#836=LINE('Line',#833,#835) ;
#843=LINE('Line',#840,#842) ;
#850=LINE('Line',#847,#849) ;
#867=LINE('Line',#864,#866) ;
#874=LINE('Line',#871,#873) ;
#881=LINE('Line',#878,#880) ;
#898=LINE('Line',#895,#897) ;
#903=LINE('Line',#900,#902) ;
#947=LINE('Line',#944,#946) ;
#956=LINE('Line',#953,#955) ;
#963=LINE('Line',#960,#962) ;
#970=LINE('Line',#967,#969) ;
#987=LINE('Line',#984,#986) ;
#994=LINE('Line',#991,#993) ;
#1001=LINE('Line',#998,#1000) ;
#1018=LINE('Line',#1015,#1017) ;
#1025=LINE('Line',#1022,#1024) ;
#1032=LINE('Line',#1029,#1031) ;
#1049=LINE('Line',#1046,#1048) ;
#1054=LINE('Line',#1051,#1053) ;
#1098=LINE('Line',#1095,#1097) ;
#1107=LINE('Line',#1104,#1106) ;
#1114=LINE('Line',#1111,#1113) ;
#1121=LINE('Line',#1118,#1120) ;
#1138=LINE('Line',#1135,#1137) ;
#1145=LINE('Line',#1142,#1144) ;
#1152=LINE('Line',#1149,#1151) ;
#1169=LINE('Line',#1166,#1168) ;
#1176=LINE('Line',#1173,#1175) ;
#1183=LINE('Line',#1180,#1182) ;
#1200=LINE('Line',#1197,#1199) ;
#1205=LINE('Line',#1202,#1204) ;
#1249=LINE('Line',#1246,#1248) ;
#1258=LINE('Line',#1255,#1257) ;
#1265=LINE('Line',#1262,#1264) ;
#1272=LINE('Line',#1269,#1271) ;
#1289=LINE('Line',#1286,#1288) ;
#1296=LINE('Line',#1293,#1295) ;
#1303=LINE('Line',#1300,#1302) ;
#1320=LINE('Line',#1317,#1319) ;
#1327=LINE('Line',#1324,#1326) ;
#1334=LINE('Line',#1331,#1333) ;
#1351=LINE('Line',#1348,#1350) ;
#1356=LINE('Line',#1353,#1355) ;
#1400=LINE('Line',#1397,#1399) ;
#1409=LINE('Line',#1406,#1408) ;
#1416=LINE('Line',#1413,#1415) ;
#1423=LINE('Line',#1420,#1422) ;
#1440=LINE('Line',#1437,#1439) ;
#1447=LINE('Line',#1444,#1446) ;
#1454=LINE('Line',#1451,#1453) ;
#1471=LINE('Line',#1468,#1470) ;
#1478=LINE('Line',#1475,#1477) ;
#1485=LINE('Line',#1482,#1484) ;
#1502=LINE('Line',#1499,#1501) ;
#1507=LINE('Line',#1504,#1506) ;
#1551=LINE('Line',#1548,#1550) ;
#1560=LINE('Line',#1557,#1559) ;
#1567=LINE('Line',#1564,#1566) ;
#1574=LINE('Line',#1571,#1573) ;
#1591=LINE('Line',#1588,#1590) ;
#1598=LINE('Line',#1595,#1597) ;
#1605=LINE('Line',#1602,#1604) ;
#1622=LINE('Line',#1619,#1621) ;
#1629=LINE('Line',#1626,#1628) ;
#1636=LINE('Line',#1633,#1635) ;
#1653=LINE('Line',#1650,#1652) ;
#1658=LINE('Line',#1655,#1657) ;
#1702=LINE('Line',#1699,#1701) ;
#1711=LINE('Line',#1708,#1710) ;
#1718=LINE('Line',#1715,#1717) ;
#1725=LINE('Line',#1722,#1724) ;
#1742=LINE('Line',#1739,#1741) ;
#1749=LINE('Line',#1746,#1748) ;
#1756=LINE('Line',#1753,#1755) ;
#1773=LINE('Line',#1770,#1772) ;
#1780=LINE('Line',#1777,#1779) ;
#1787=LINE('Line',#1784,#1786) ;
#1804=LINE('Line',#1801,#1803) ;
#1809=LINE('Line',#1806,#1808) ;
#1853=LINE('Line',#1850,#1852) ;
#1862=LINE('Line',#1859,#1861) ;
#1869=LINE('Line',#1866,#1868) ;
#1876=LINE('Line',#1873,#1875) ;
#1893=LINE('Line',#1890,#1892) ;
#1900=LINE('Line',#1897,#1899) ;
#1907=LINE('Line',#1904,#1906) ;
#1924=LINE('Line',#1921,#1923) ;
#1931=LINE('Line',#1928,#1930) ;
#1938=LINE('Line',#1935,#1937) ;
#1955=LINE('Line',#1952,#1954) ;
#1960=LINE('Line',#1957,#1959) ;
#2004=LINE('Line',#2001,#2003) ;
#2013=LINE('Line',#2010,#2012) ;
#2020=LINE('Line',#2017,#2019) ;
#2027=LINE('Line',#2024,#2026) ;
#2044=LINE('Line',#2041,#2043) ;
#2051=LINE('Line',#2048,#2050) ;
#2058=LINE('Line',#2055,#2057) ;
#2075=LINE('Line',#2072,#2074) ;
#2082=LINE('Line',#2079,#2081) ;
#2089=LINE('Line',#2086,#2088) ;
#2106=LINE('Line',#2103,#2105) ;
#2111=LINE('Line',#2108,#2110) ;
#35=PLANE('',#34) ;
#75=PLANE('',#74) ;
#106=PLANE('',#105) ;
#130=PLANE('',#129) ;
#154=PLANE('',#153) ;
#171=PLANE('',#170) ;
#188=PLANE('',#187) ;
#228=PLANE('',#227) ;
#259=PLANE('',#258) ;
#290=PLANE('',#289) ;
#312=PLANE('',#311) ;
#324=PLANE('',#323) ;
#339=PLANE('',#338) ;
#379=PLANE('',#378) ;
#410=PLANE('',#409) ;
#441=PLANE('',#440) ;
#463=PLANE('',#462) ;
#475=PLANE('',#474) ;
#490=PLANE('',#489) ;
#530=PLANE('',#529) ;
#561=PLANE('',#560) ;
#592=PLANE('',#591) ;
#614=PLANE('',#613) ;
#626=PLANE('',#625) ;
#641=PLANE('',#640) ;
#681=PLANE('',#680) ;
#712=PLANE('',#711) ;
#743=PLANE('',#742) ;
#765=PLANE('',#764) ;
#777=PLANE('',#776) ;
#792=PLANE('',#791) ;
#832=PLANE('',#831) ;
#863=PLANE('',#862) ;
#894=PLANE('',#893) ;
#916=PLANE('',#915) ;
#928=PLANE('',#927) ;
#943=PLANE('',#942) ;
#983=PLANE('',#982) ;
#1014=PLANE('',#1013) ;
#1045=PLANE('',#1044) ;
#1067=PLANE('',#1066) ;
#1079=PLANE('',#1078) ;
#1094=PLANE('',#1093) ;
#1134=PLANE('',#1133) ;
#1165=PLANE('',#1164) ;
#1196=PLANE('',#1195) ;
#1218=PLANE('',#1217) ;
#1230=PLANE('',#1229) ;
#1245=PLANE('',#1244) ;
#1285=PLANE('',#1284) ;
#1316=PLANE('',#1315) ;
#1347=PLANE('',#1346) ;
#1369=PLANE('',#1368) ;
#1381=PLANE('',#1380) ;
#1396=PLANE('',#1395) ;
#1436=PLANE('',#1435) ;
#1467=PLANE('',#1466) ;
#1498=PLANE('',#1497) ;
#1520=PLANE('',#1519) ;
#1532=PLANE('',#1531) ;
#1547=PLANE('',#1546) ;
#1587=PLANE('',#1586) ;
#1618=PLANE('',#1617) ;
#1649=PLANE('',#1648) ;
#1671=PLANE('',#1670) ;
#1683=PLANE('',#1682) ;
#1698=PLANE('',#1697) ;
#1738=PLANE('',#1737) ;
#1769=PLANE('',#1768) ;
#1800=PLANE('',#1799) ;
#1822=PLANE('',#1821) ;
#1834=PLANE('',#1833) ;
#1849=PLANE('',#1848) ;
#1889=PLANE('',#1888) ;
#1920=PLANE('',#1919) ;
#1951=PLANE('',#1950) ;
#1973=PLANE('',#1972) ;
#1985=PLANE('',#1984) ;
#2000=PLANE('',#1999) ;
#2040=PLANE('',#2039) ;
#2071=PLANE('',#2070) ;
#2102=PLANE('',#2101) ;
#2124=PLANE('',#2123) ;
#2136=PLANE('',#2135) ;
#9=PRODUCT_CATEGORY_RELATIONSHIP(' ',' ',#7,#8) ;
#6=PRODUCT_DEFINITION_FORMATION_WITH_SPECIFIED_SOURCE('',' ',#5,.NOT_KNOWN.) ;
#20=SHAPE_DEFINITION_REPRESENTATION(#11,#19) ;
#41=VERTEX_POINT('',#40) ;
#43=VERTEX_POINT('',#42) ;
#50=VERTEX_POINT('',#49) ;
#57=VERTEX_POINT('',#56) ;
#81=VERTEX_POINT('',#80) ;
#83=VERTEX_POINT('',#82) ;
#112=VERTEX_POINT('',#111) ;
#136=VERTEX_POINT('',#135) ;
#194=VERTEX_POINT('',#193) ;
#196=VERTEX_POINT('',#195) ;
#203=VERTEX_POINT('',#202) ;
#210=VERTEX_POINT('',#209) ;
#234=VERTEX_POINT('',#233) ;
#241=VERTEX_POINT('',#240) ;
#265=VERTEX_POINT('',#264) ;
#272=VERTEX_POINT('',#271) ;
#345=VERTEX_POINT('',#344) ;
#347=VERTEX_POINT('',#346) ;
#354=VERTEX_POINT('',#353) ;
#361=VERTEX_POINT('',#360) ;
#385=VERTEX_POINT('',#384) ;
#392=VERTEX_POINT('',#391) ;
#416=VERTEX_POINT('',#415) ;
#423=VERTEX_POINT('',#422) ;
#496=VERTEX_POINT('',#495) ;
#498=VERTEX_POINT('',#497) ;
#505=VERTEX_POINT('',#504) ;
#512=VERTEX_POINT('',#511) ;
#536=VERTEX_POINT('',#535) ;
#543=VERTEX_POINT('',#542) ;
#567=VERTEX_POINT('',#566) ;
#574=VERTEX_POINT('',#573) ;
#647=VERTEX_POINT('',#646) ;
#649=VERTEX_POINT('',#648) ;
#656=VERTEX_POINT('',#655) ;
#663=VERTEX_POINT('',#662) ;
#687=VERTEX_POINT('',#686) ;
#694=VERTEX_POINT('',#693) ;
#718=VERTEX_POINT('',#717) ;
#725=VERTEX_POINT('',#724) ;
#798=VERTEX_POINT('',#797) ;
#800=VERTEX_POINT('',#799) ;
#807=VERTEX_POINT('',#806) ;
#814=VERTEX_POINT('',#813) ;
#838=VERTEX_POINT('',#837) ;
#845=VERTEX_POINT('',#844) ;
#869=VERTEX_POINT('',#868) ;
#876=VERTEX_POINT('',#875) ;
#949=VERTEX_POINT('',#948) ;
#951=VERTEX_POINT('',#950) ;
#958=VERTEX_POINT('',#957) ;
#965=VERTEX_POINT('',#964) ;
#989=VERTEX_POINT('',#988) ;
#996=VERTEX_POINT('',#995) ;
#1020=VERTEX_POINT('',#1019) ;
#1027=VERTEX_POINT('',#1026) ;
#1100=VERTEX_POINT('',#1099) ;
#1102=VERTEX_POINT('',#1101) ;
#1109=VERTEX_POINT('',#1108) ;
#1116=VERTEX_POINT('',#1115) ;
#1140=VERTEX_POINT('',#1139) ;
#1147=VERTEX_POINT('',#1146) ;
#1171=VERTEX_POINT('',#1170) ;
#1178=VERTEX_POINT('',#1177) ;
#1251=VERTEX_POINT('',#1250) ;
#1253=VERTEX_POINT('',#1252) ;
#1260=VERTEX_POINT('',#1259) ;
#1267=VERTEX_POINT('',#1266) ;
#1291=VERTEX_POINT('',#1290) ;
#1298=VERTEX_POINT('',#1297) ;
#1322=VERTEX_POINT('',#1321) ;
#1329=VERTEX_POINT('',#1328) ;
#1402=VERTEX_POINT('',#1401) ;
#1404=VERTEX_POINT('',#1403) ;
#1411=VERTEX_POINT('',#1410) ;
#1418=VERTEX_POINT('',#1417) ;
#1442=VERTEX_POINT('',#1441) ;
#1449=VERTEX_POINT('',#1448) ;
#1473=VERTEX_POINT('',#1472) ;
#1480=VERTEX_POINT('',#1479) ;
#1553=VERTEX_POINT('',#1552) ;
#1555=VERTEX_POINT('',#1554) ;
#1562=VERTEX_POINT('',#1561) ;
#1569=VERTEX_POINT('',#1568) ;
#1593=VERTEX_POINT('',#1592) ;
#1600=VERTEX_POINT('',#1599) ;
#1624=VERTEX_POINT('',#1623) ;
#1631=VERTEX_POINT('',#1630) ;
#1704=VERTEX_POINT('',#1703) ;
#1706=VERTEX_POINT('',#1705) ;
#1713=VERTEX_POINT('',#1712) ;
#1720=VERTEX_POINT('',#1719) ;
#1744=VERTEX_POINT('',#1743) ;
#1751=VERTEX_POINT('',#1750) ;
#1775=VERTEX_POINT('',#1774) ;
#1782=VERTEX_POINT('',#1781) ;
#1855=VERTEX_POINT('',#1854) ;
#1857=VERTEX_POINT('',#1856) ;
#1864=VERTEX_POINT('',#1863) ;
#1871=VERTEX_POINT('',#1870) ;
#1895=VERTEX_POINT('',#1894) ;
#1902=VERTEX_POINT('',#1901) ;
#1926=VERTEX_POINT('',#1925) ;
#1933=VERTEX_POINT('',#1932) ;
#2006=VERTEX_POINT('',#2005) ;
#2008=VERTEX_POINT('',#2007) ;
#2015=VERTEX_POINT('',#2014) ;
#2022=VERTEX_POINT('',#2021) ;
#2046=VERTEX_POINT('',#2045) ;
#2053=VERTEX_POINT('',#2052) ;
#2077=VERTEX_POINT('',#2076) ;
#2084=VERTEX_POINT('',#2083) ;
#12=(LENGTH_UNIT()NAMED_UNIT(*)SI_UNIT(.MILLI.,.METRE.)) ;
#13=(NAMED_UNIT(*)PLANE_ANGLE_UNIT()SI_UNIT($,.RADIAN.)) ;
#14=(NAMED_UNIT(*)SI_UNIT($,.STERADIAN.)SOLID_ANGLE_UNIT()) ;
#16=(GEOMETRIC_REPRESENTATION_CONTEXT(3)GLOBAL_UNCERTAINTY_ASSIGNED_CONTEXT((#15))GLOBAL_UNIT_ASSIGNED_CONTEXT((#12,#13,#14))REPRESENTATION_CONTEXT(' ',' ')) ;
ENDSEC;
END-ISO-10303-21;
